<?xml version="1.0" encoding="UTF-8"?>
<svg width="120px" height="120px" viewBox="0 0 120 120" version="1.1" xmlns="http://www.w3.org/2000/svg" xmlns:xlink="http://www.w3.org/1999/xlink">
    <title>spot / spot-website</title>
    <g id="spot-/-spot-website" stroke="none" stroke-width="1" fill="none" fill-rule="evenodd">
        <rect id="Rectangle" fill-rule="nonzero" x="0" y="0" width="120" height="120"></rect>
        <g id="group" transform="translate(9.000000, 18.000000)">
            <path d="M91.9444,34.5027 C83.2044,-29.5563 -15.3266,1.9997 4.7604,76.5857 C4.7334,76.5317 4.7074,76.4787 4.6794,76.4247 C5.6014,78.5207 7.0904,80.5467 9.3454,81.2847 C13.2234,83.8177 18.5224,83.6267 22.7414,82.0507 C22.6004,82.1007 22.4594,82.1497 22.3174,82.1977 C35.5994,78.2777 47.5784,71.3647 60.1974,65.7457 C77.8074,63.7247 95.2664,55.2577 91.9444,34.5027" id="Fill-1" fill-opacity="0.4" fill="#C0F0D3"></path>
            <path d="M64.3106,66.8449 C47.1386,65.9289 29.9186,66.6339 12.7506,65.5379 C12.8196,65.5429 12.8876,65.5489 12.9566,65.5539 C12.7406,65.5359 12.5246,65.5179 12.3076,65.4999 C12.3756,65.5059 12.4436,65.5119 12.5116,65.5169 C9.3346,65.2919 6.1836,64.8899 3.0166,64.5829 C2.5446,64.8139 1.9396,64.7299 1.5376,64.3919 C0.7296,64.2169 0.3376,63.1519 1.0636,62.6179 C1.0636,62.6169 1.0626,62.6169 1.0626,62.6169 C1.1436,62.5579 1.2276,62.5119 1.3236,62.4799 C1.1916,62.0749 1.4626,61.6079 1.8746,61.5169 L1.8716,61.5169 C6.6296,60.1239 16.8986,49.0469 20.0736,51.7329 C20.0056,51.8539 19.8556,52.0539 19.7456,52.1749 C19.7586,52.2089 19.7716,52.2429 19.7816,52.2779 C20.2806,52.0189 20.8906,52.4229 20.8986,52.9719 C38.9136,51.7779 58.2576,52.1239 76.6766,52.4329 C77.1126,51.8029 77.9816,51.9739 78.5906,52.2319 C79.6996,52.2369 80.8186,52.2619 81.9236,52.2899 C84.7096,50.6679 89.4916,55.9919 92.7066,57.0209 C92.7066,57.0209 92.7066,57.0209 92.7066,57.0209 C94.9656,58.6859 98.6696,59.1469 100.2046,61.3809 C100.4426,61.5769 100.6486,61.8469 100.5906,62.1699 C100.7496,62.5369 100.5206,62.9999 100.1356,63.1079 C99.9656,63.2709 99.7126,63.3299 99.4856,63.2669 C99.3276,63.2789 99.1686,63.2919 99.0106,63.3069 C87.4946,64.3369 75.9666,66.9909 64.3106,66.8449" id="Fill-4" fill="#AAEDC8"></path>
            <path d="M84.477,30.2948 C83.853,24.0758 85.255,16.4548 82.937,10.8988 C82.611,10.0808 81.626,9.6968 80.82,10.0248 C74.165,9.6038 67.562,9.2538 60.889,9.6828 L60.896,9.6828 C60.84,9.6828 60.783,9.6838 60.726,9.6848 L60.732,9.6848 C46.711,10.7488 30.518,7.9558 17.492,11.7038 C16.503,24.1208 16.874,36.9708 17.66,49.4558 C17.658,49.4338 17.657,49.4118 17.656,49.3898 C17.644,49.9208 17.742,50.4448 17.757,50.9728 C17.76,50.9368 17.764,50.9018 17.76,50.8658 C17.761,50.8778 17.761,50.8908 17.762,50.9038 L17.762,50.9018 C17.762,50.9058 17.763,50.9098 17.763,50.9138 C17.763,50.9098 17.763,50.9068 17.762,50.9038 C17.752,51.0598 17.753,51.2068 17.76,51.3628 C17.76,51.3528 17.759,51.3428 17.758,51.3328 C17.76,51.3658 17.762,51.3978 17.764,51.4318 L17.761,51.3758 C17.785,51.7368 17.93,52.0728 18.236,52.2848 C18.707,53.2878 20.147,53.3418 21.117,53.5348 C21.071,53.5248 21.024,53.5148 20.979,53.5058 C35.669,54.5638 50.585,54.3778 65.255,54.3208 C65.187,54.3258 65.119,54.3288 65.05,54.3328 C70.668,53.2408 76.516,54.2828 82.078,53.2698 C82.837,53.8358 84.331,52.9708 83.604,52.0408 C84.501,48.6768 83.471,44.6388 83.979,41.0308 C83.978,41.0608 83.975,41.0908 83.973,41.1218 C84.06,37.5098 84.314,33.9018 84.477,30.2948" id="Path" fill="#6AD6A4"></path>
            <path d="M101.457,67.0495 C101.439,66.9795 101.418,66.9115 101.392,66.8475 C101.51,66.5605 101.478,66.2175 101.358,65.9355 C101.182,65.0405 101.406,64.0185 100.905,63.2115 C95.236,60.5735 86.236,64.2515 79.48,63.4585 C79.497,63.4575 79.515,63.4575 79.53,63.4555 C78.369,63.5005 77.21,63.5505 76.048,63.5725 C76.066,63.5705 76.084,63.5705 76.103,63.5705 C75.943,63.5745 75.785,63.5805 75.626,63.5855 C75.655,63.5845 75.684,63.5835 75.713,63.5825 C75.632,63.5845 75.553,63.5885 75.473,63.5905 C75.487,63.5895 75.501,63.5895 75.516,63.5885 C67.28,64.4265 58.991,63.2785 50.735,63.5445 C50.761,63.5425 50.786,63.5415 50.812,63.5405 C44.31,63.6505 37.808,63.8545 31.311,64.1585 C31.316,64.1585 31.321,64.1575 31.327,64.1575 C21.381,64.5105 11.34,63.5655 1.459,64.0285 C-5.661,74.4315 15.294,69.2805 21.022,70.2245 C21.02,70.2245 21.018,70.2255 21.016,70.2255 C46.987,67.5225 77.816,74.0135 101.457,67.0495" id="Fill-8" fill="#6AD6A4"></path>
            <path d="M45.7471,50.7693 C37.9361,50.6873 30.1871,49.4653 22.3581,49.9363 C22.1431,49.5343 21.7261,49.2843 21.2761,49.2343 C21.2321,49.2073 21.2041,49.1633 21.1691,49.1253 C21.1781,49.1363 21.1871,49.1483 21.1871,49.1483 L21.0301,48.9623 L20.9921,48.8373 L21.0011,48.8673 C19.4391,37.0453 20.5651,24.8403 20.4481,12.9443 C21.5561,12.5603 22.8331,13.2683 23.7151,12.5323 C42.1951,12.2743 60.7881,11.5233 79.1871,13.0033 C79.3651,13.1183 79.5741,13.1843 79.7621,13.2433 C80.1131,13.4543 80.3701,13.7033 80.6901,13.9293 C81.1481,14.7793 81.1221,15.7643 80.8781,16.6733 C81.1161,22.4713 80.5671,28.2543 81.2551,34.0613 L81.2491,34.0183 C81.4611,38.4133 80.4031,42.8043 80.7391,47.1923 L80.7361,47.1503 C80.6751,47.9383 80.7471,48.7533 80.5671,49.5253 C80.5601,49.8293 80.5571,50.1383 80.5201,50.4413 C80.4361,50.5073 80.3571,50.5803 80.2761,50.6673 C79.8621,50.6413 79.4581,50.6143 79.0271,50.6263 L79.0631,50.6203 C69.6261,50.2803 60.0201,50.1993 50.5841,50.7483 L50.6201,50.7433 C49.0031,50.7973 47.3611,50.8573 45.7471,50.7693" id="Fill-10" fill="#4BA8CA"></path>
            <path d="M35.3135,43.9963 C40.3355,45.1363 45.5405,45.0973 50.6905,45.0533 C56.3155,45.0053 61.9405,44.9573 67.5655,44.9093 C68.8195,36.2953 69.0365,27.5313 68.2085,18.8673 C62.4005,19.7133 56.5105,18.0413 50.6465,18.2813 C47.6675,18.4033 44.7405,18.0143 41.7905,18.3993 C40.0095,18.6323 37.6675,18.2313 35.5345,18.9093 C34.7485,21.9193 34.9705,30.3783 35.0235,33.8843 C35.0375,34.8043 34.8735,43.8963 35.3135,43.9963" id="Fill-12" fill="#DFFAFF"></path>
            <path d="M68.6738,26.8088 C68.6158,24.1568 68.4608,21.5078 68.2078,18.8668 C62.4008,19.7138 56.5108,18.0408 50.6468,18.2818 C47.6668,18.4038 44.7398,18.0148 41.7898,18.3998 C40.0098,18.6318 37.6668,18.2318 35.5338,18.9088 C35.1428,20.4088 35.0008,23.2608 34.9648,26.1788 C42.5558,26.5578 61.4978,27.5608 68.6738,26.8088" id="Fill-14" fill="#7AE1E6"></path>
        </g>
    </g>
</svg>