<?xml version="1.0" encoding="UTF-8"?>
<svg width="120px" height="120px" viewBox="0 0 120 120" version="1.1" xmlns="http://www.w3.org/2000/svg" xmlns:xlink="http://www.w3.org/1999/xlink">
    <title>spot / spot-checkmark</title>
    <g id="spot-/-spot-checkmark" stroke="none" stroke-width="1" fill="none" fill-rule="evenodd">
        <rect id="Rectangle" fill-rule="nonzero" x="0" y="0" width="120" height="120"></rect>
        <g id="spot-checkmark" transform="translate(11.000000, 20.000000)">
            <path d="M97.7768047,29.185318 C96.8858047,62.350318 84.0718047,64.461318 74.8798047,73.168318 C56.8988047,90.200318 -10.3251953,89.462318 1.3538047,45.837318 C7.7848047,21.819318 27.2038047,24.733318 41.8598047,9.24631802 C56.5158047,-6.24268198 98.6678047,-3.98068198 97.7768047,29.185318" id="bg" fill-opacity="0.4" fill="#C0F0D3"></path>
            <path d="M77.2788047,32.126718 C73.0218047,19.500718 58.3808047,14.875718 46.5458047,18.783718 C44.0778047,17.864718 41.1928047,18.675718 39.5908047,20.766718 C20.7758047,29.238718 21.9658047,60.142718 40.7908047,68.195718 C40.6638047,68.141718 40.5358047,68.085718 40.4108047,68.030718 C42.9468047,69.400718 45.7198047,71.046718 48.7098047,70.205718 C57.2258047,71.001718 67.8988047,68.526718 72.7998047,60.961718 C79.5968047,53.475718 80.4768047,41.427718 77.2788047,32.126718" id="circle-shadow" fill="#4BA8CA"></path>
            <path d="M74.2788047,28.126718 C70.0218047,15.500718 55.3808047,10.875718 43.5458047,14.783718 C41.0778047,13.864718 38.1928047,14.675718 36.5908047,16.766718 C17.7758047,25.238718 18.9658047,56.142718 37.7908047,64.195718 C37.6638047,64.141718 37.5358047,64.085718 37.4108047,64.030718 C39.9468047,65.400718 42.7198047,67.046718 45.7098047,66.205718 C54.2258047,67.001718 64.8988047,64.526718 69.7998047,56.961718 C76.5968047,49.475718 77.4768047,37.427718 74.2788047,28.126718" id="circle" fill="#6AD6A4"></path>
            <path d="M29.5356047,9.11501802 C27.4646047,7.71801802 26.4386047,4.81101802 27.4686047,2.53401802 C27.6916047,2.03801802 28.0176047,1.56501802 28.4896047,1.29501802 C29.0866047,0.953018024 29.8306047,0.981018024 30.4936047,1.16201802 C32.6896047,1.75901802 34.1446047,3.76101802 34.8426047,5.82501802 C35.3976047,7.46701802 35.7586047,10.004018 33.3916047,10.170018 C32.0646047,10.262018 30.6346047,9.85601802 29.5356047,9.11501802" id="line-3" fill="#FAD680"></path>
            <path d="M11.7358047,19.469418 C11.5958047,19.116418 11.4948047,18.729418 11.5818047,18.361418 C11.7928047,17.471418 12.9008047,17.180418 13.8128047,17.127418 C15.8548047,17.010418 17.9158047,17.254418 19.8778047,17.828418 C21.2698047,18.236418 23.2018047,18.749418 23.0528047,20.551418 C22.9428047,21.904418 21.8218047,23.897418 20.4238047,24.208418 C18.9448047,24.538418 16.8018047,23.668418 15.4758047,23.053418 C13.8738047,22.310418 12.4008047,21.155418 11.7358047,19.469418" id="line-2" fill="#FAD680"></path>
            <path d="M18.0073047,33.375718 C18.1493047,34.796718 18.0403047,36.241718 17.6883047,37.625718 C17.5863047,38.021718 17.4533047,38.433718 17.1533047,38.711718 C16.8033047,39.036718 16.2963047,39.116718 15.8223047,39.181718 C14.5173047,39.359718 13.1623047,39.534718 11.9043047,39.142718 C10.6473047,38.750718 9.5173047,37.619718 9.5753047,36.304718 C9.6223047,35.269718 10.3733047,34.390718 11.2243047,33.799718 C13.0213047,32.550718 15.4403047,32.251718 17.4863047,33.024718" id="line-1" fill="#FAD680"></path>
            <path d="M44.5424047,54.435318 C41.1474047,52.951318 39.2814047,48.668318 36.9414047,45.823318 C34.9954047,44.205318 36.5364047,40.715318 39.0194047,41.160318 C39.0194047,41.154318 39.0194047,41.150318 39.0214047,41.145318 C42.0034047,42.157318 43.1354047,46.134318 45.3974047,48.280318 C75.3144047,15.397318 67.8824047,41.918318 44.5424047,54.435318" id="check" fill="#FFFBF0"></path>
        </g>
    </g>
</svg>