<svg xmlns="http://www.w3.org/2000/svg" xmlns:xlink="http://www.w3.org/1999/xlink" xmlns:inkscape="http://www.inkscape.org/namespaces/inkscape" version="1.1" width="356.137" height="301.491" viewBox="0 0 356.137 301.491">
<defs>
<clipPath id="clip_1">
<path transform="matrix(1,0,0,-1,0,301.491)" d="M0 301.491H356.137V0H0Z"/>
</clipPath>
</defs>
<g inkscape:groupmode="layer" inkscape:label="Layer 1">
<g clip-path="url(#clip_1)">
<path transform="matrix(1,0,0,-1,190.2729,20.559693)" d="M0 0C.747-.227 1.75-.107 2.719 .01 3.189 .066 3.633 .12 3.978 .122 5.196 .118 6.436 .092 7.668 .017 7.926 .001 8.253 .004 8.609 .004 9.433 .013 10.565 .015 11.042-.251 11.043-.252 11.044-.253 11.046-.254L11.292 .182 11.538 .617C9.182 1.949 6.283 1.981 3.953 2.008L.948 2.041C.363 2.018-.814 1.754-.928 1.018-.969 .756-.902 .275 0 0" fill="#030404"/>
<path transform="matrix(1,0,0,-1,185.3373,36.59189)" d="M0 0C.106-.066 .216-.135 .312-.211 .825-.62 1.291-1.071 1.784-1.55 2.266-2.017 2.764-2.499 3.305-2.934 3.623-3.189 3.979-3.428 4.428-3.44H4.473C4.661-3.44 4.83-3.4 4.986-3.358 6.364-2.991 7.652-2.387 8.813-1.563 8.975-1.449 9.144-1.322 9.279-1.134 9.42-.939 9.511-.698 9.556-.397 9.64 .162 9.553 .751 9.312 1.262L9.208 1.483 8.968 1.537C6.463 2.095 3.893 2.337 1.326 2.269 .536 2.246-.244 2.156-.591 1.653-.772 1.391-.837 1.127-.785 .868-.696 .438-.326 .205 0 0" fill="#030404"/>
<path transform="matrix(1,0,0,-1,128.0381,126.79399)" d="M0 0C.296-.412 .76-.576 1.217-.692 1.668-.808 2.135-.898 2.61-.883L3.921-1.273 3.181-.798C3.229-.784 3.277-.77 3.326-.753 4.123-.479 4.792 .409 4.517 1.292L4.415 1.617 1.902 1.805C1.527 1.834 .83 1.886 .343 1.439 .195 1.304 .092 1.121 .043 .918L-.845 1.177Z" fill="#030404"/>
<path transform="matrix(1,0,0,-1,122.5,119.574298)" d="M0 0 .53-.179 .648 .368C.711 .658 .935 .925 1.247 1.082 1.56 1.239 1.908 1.261 2.178 1.139L2.547 1.827 2.59 1.832C2.587 1.853 2.585 1.872 2.582 1.893L2.649 2.019 2.542 2.086C2.411 2.574 2.064 3.009 1.578 3.279 1.011 3.595 .352 3.631-.187 3.377-.357 3.295-.512 3.191-.646 3.068-1.087 2.665-1.277 2.012-1.141 1.362-1.005 .714-.568 .191 0 0" fill="#030404"/>
<path transform="matrix(1,0,0,-1,122.7559,125.405399)" d="M0 0C.319-.111 .679-.224 1.061-.224 1.189-.224 1.321-.211 1.454-.182 1.896-.083 2.328 .257 2.484 .707 2.542 .703 2.603 .697 2.664 .691 2.676 .69 2.688 .688 2.702 .687L2.761 .209 2.836 .675C3.161 .653 3.554 .663 3.871 .976 4.066 1.168 4.149 1.413 4.204 1.575 4.391 2.132 4.604 2.764 4.589 3.435 4.571 4.261 4.178 4.986 3.562 5.329 3.502 5.362 3.331 5.458 3.117 5.465L2.893 7.303 2.599 5.474 2.031 6.622 2.293 3.395C2.258 3.304 2.201 3.229 2.121 3.197 2.058 3.173 1.947 3.204 1.869 3.272 1.82 3.315 1.79 3.367 1.797 3.396 1.806 3.429 1.82 3.461 1.833 3.493 1.87 3.582 1.916 3.693 1.935 3.829 1.981 4.144 1.864 4.457 1.615 4.689 1.341 4.944 .954 5.057 .604 4.978 .079 4.861-.336 4.396-.453 3.795-.501 3.545-.498 3.296-.472 3.063-.767 3.049-1.06 3.089-1.344 3.155L-1.717 3.241-1.897 2.903C-2.222 2.296-2.076 1.469-1.542 .895-1.117 .436-.55 .193 0 0" fill="#030404"/>
<path transform="matrix(1,0,0,-1,127.8965,137.1837)" d="M0 0C-1.632 .234-3.333 .117-4.918-.339L-6.622-.829-4.724-1.354C-4.068-2.008-3.146-2.354-2.226-2.354-1.604-2.354-.984-2.196-.447-1.868 .146-1.504 .465-.991 .427-.46L.399-.058Z" fill="#030404"/>
<path transform="matrix(1,0,0,-1,128.8379,128.4971)" d="M0 0 .534-.514 .443-.71C.341-.933 .346-1.176 .458-1.395 .642-1.753 1.061-1.949 1.391-2.013 2.006-2.132 2.637-2.192 3.27-2.192 3.324-2.192 3.378-2.192 3.433-2.191 4.26-2.175 4.833-1.761 4.857-1.159 4.868-.902 4.779-.668 4.601-.479 4.23-.09 3.599-.041 3.344-.038Z" fill="#030404"/>
<path transform="matrix(1,0,0,-1,146.7377,24.005005)" d="M0 0-2.367-1.365 .33-.927C3.03-.489 5.011-.441 6.958-.774 7.286-.83 7.623-.9 7.827-1.083 8.002-1.241 8.11-1.507 8.224-1.812L8.419-2.347C9.01-3.971 9.621-5.651 10.957-6.831 11.199-7.045 11.465-7.241 11.731-7.437 12.205-7.787 12.658-8.12 12.929-8.54 12.112-9.29 11.626-10.457 11.611-11.751 11.596-13.059 12.032-14.309 12.46-15.359 13.022-16.738 13.588-17.813 14.241-18.742 16.471-21.911 20.308-23.872 24.177-23.872 24.424-23.872 24.671-23.863 24.918-23.848L25.25-23.826 25.358-23.512C25.618-22.761 25.297-22.069 25.015-21.459 24.808-21.012 24.613-20.59 24.666-20.216 24.709-19.913 24.913-19.633 25.148-19.309 25.33-19.059 25.518-18.8 25.655-18.495 25.99-17.753 25.928-16.941 25.874-16.227L25.848-15.861C25.793-14.962 25.958-14.35 26.336-14.039 26.609-13.815 27.01-13.733 27.434-13.647 27.742-13.584 28.061-13.52 28.374-13.396 29.375-13.001 29.993-12.149 30.592-11.326 31.14-10.571 31.658-9.858 32.41-9.589 32.763-9.462 33.173-9.432 33.606-9.4 34.299-9.349 35.084-9.291 35.708-8.779 36.71-7.959 36.675-6.568 36.507-5.316L36.466-4.536 35.81-4.944C35.773-4.936 35.691-4.859 35.678-4.787 35.643-4.605 35.713-4.371 35.788-4.123L35.852-3.901C36.077-3.069 35.834-2.597 35.592-2.347 35.431-2.18 35.242-2.087 35.09-2.012 35.033-1.983 34.975-1.955 34.92-1.921 34.558-1.692 34.437-1.139 34.308-.553 34.139 .219 33.948 1.093 33.111 1.482 32.891 1.585 32.668 1.627 32.473 1.663 32.353 1.686 32.233 1.705 32.119 1.748 31.61 1.935 31.411 2.496 31.143 3.399 30.897 4.229 30.618 5.17 29.792 5.662 29.101 6.074 28.323 5.987 27.634 5.911 27.281 5.871 26.946 5.838 26.638 5.858 25.97 5.912 25.352 6.267 24.696 6.642 24.202 6.925 23.691 7.218 23.123 7.4 21.938 7.784 20.545 7.676 18.866 7.074 18.422 6.915 17.986 6.735 17.55 6.556 16.734 6.22 15.963 5.901 15.148 5.716 14.162 5.491 13.151 5.467 12.08 5.442 10.946 5.415 9.773 5.388 8.632 5.099 6.459 4.55 4.591 3.193 2.784 1.882 1.833 1.191 .936 .539 0 0" fill="#030404"/>
<path transform="matrix(1,0,0,-1,177.4682,11.925903)" d="M0 0C40.862 0 79.46-17.893 105.92-49.098 103.563-51.397 101.18-53.64 98.654-55.934 98.53-54.836 98.387-54.106 98.381-54.075L98.324-53.924C97.057-51.709 95.444-49.735 93.532-48.058 93.13-47.701 92.647-47.313 92.008-47.235 91.363-47.165 90.808-47.44 90.317-47.687 90.064-47.814 89.825-47.935 89.586-48.004 89.403-48.059 89.137-48.001 88.935-47.864 88.788-47.766 88.75-47.677 88.763-47.641 88.817-47.572 88.987-47.525 89.15-47.479 89.271-47.446 89.39-47.412 89.49-47.372 90.731-46.924 91.174-45.449 90.885-44.281 90.619-43.215 89.884-42.371 89.152-41.598 82.304-34.414 73.789-28.913 64.932-23.446 59.928-20.377 54.257-16.897 47.965-15.277L46.397-14.874 47.464-16.091C48.32-17.067 49.241-17.962 50.212-18.76 46.785-19.145 43.38-17.328 40.076-15.568 39.553-15.29 39.034-15.014 38.52-14.748 35.931-13.408 33.198-12.293 30.395-11.434 29.088-11.037 27.517-11.059 27.023-12.305 26.559-13.525 27.73-14.639 28.117-15.005 28.888-15.734 29.932-16.345 30.94-16.936 32.858-18.059 34.669-19.119 34.512-20.795 34.095-25.243 38.018-29.687 40.208-30.527 41.238-30.922 41.743-30.511 41.949-30.232 42.34-29.715 42.945-29.557 43.383-29.516 44.605-29.4 46.102-29.993 47.283-31.062 47.897-31.622 48.457-32.212 48.95-32.731 50.223-34.073 51.227-35.133 52.318-34.767 52.833-34.595 53.188-34.159 53.291-33.573 53.517-32.277 52.527-30.545 50.769-29.158L50.183-28.7C49.465-28.141 48.644-27.5 47.808-26.801 48.154-26.912 48.493-26.944 48.903-26.973 49.543-27.017 50.341-27.071 51.821-27.565 54.415-28.435 54.462-29.443 54.512-30.512 54.533-30.95 54.554-31.403 54.74-31.837 55.072-32.62 55.834-33.054 56.507-33.437 57.079-33.762 57.578-34.046 57.711-34.479 57.503-34.467 57.154-34.388 56.926-34.336 56.252-34.183 55.617-34.037 55.196-34.373 55.057-34.484 54.89-34.692 54.89-35.052 54.89-35.379 54.834-35.466 54.811-35.487 54.609-35.673 53.532-35.583 52.582-35.504 50.607-35.339 49.223-34.446 46.657-31.683 45.379-30.302 44.903-29.917 44.415-30.202 43.903-30.502 44.092-31.087 44.55-32.501 44.647-32.805 44.755-33.137 44.862-33.489 45.175-34.505 45.696-35.449 46.201-36.362 46.966-37.748 47.69-39.058 47.69-40.542 47.69-42.82 45.399-44.924 43.185-46.958L42.73-47.376C42.018-48.036 41.612-48.551 41.792-49.074 41.99-49.653 42.704-49.716 43.69-49.802 44.626-49.883 45.791-49.984 46.84-50.476 49.485-51.705 52.25-54.601 52.423-56.322 52.429-56.385 52.42-56.44 52.359-56.514 51.796-57.181 49.016-57.373 46.986-57.514 45.701-57.604 44.487-57.687 43.548-57.861 43.004-57.963 42.256-58.173 42.026-58.808 41.74-59.599 42.422-60.423 43.366-61.562 44.025-62.359 44.772-63.262 45.273-64.267 45.755-65.227 46.042-66.115 46.294-66.899 46.823-68.537 47.279-69.952 49.208-70.399 49.72-70.518 50.111-70.596 50.424-70.658 51.527-70.878 51.527-70.878 52.779-71.997 53.435-72.575 53.902-72.887 54.366-72.762 54.819-72.638 54.962-72.198 55.114-71.732 55.224-71.397 55.36-70.98 55.625-70.555 55.888-70.131 56.272-70.118 57.037-70.126 57.991-70.133 59.312-70.154 60.504-68.723 61.393-67.656 61.78-66.578 61.656-65.517 61.5-64.186 60.588-63.246 59.852-62.692 59.482-62.414 59.458-62.281 59.458-62.281 59.478-62.143 59.938-61.803 60.243-61.578 60.609-61.308 61.025-61.002 61.424-60.605 62.151-59.878 62.591-59.395 62.567-58.809 62.544-58.239 62.087-57.811 61.396-57.223 61.154-57.016 61.021-56.87 60.948-56.775 61.153-56.731 61.603-56.691 62.549-56.77L63.049-56.814C65.049-56.993 65.627-56.969 66.954-55.25 67.139-55.014 67.249-54.895 67.313-54.835 67.405-54.916 67.544-55.07 67.671-55.209 68.264-55.862 69.256-56.954 71.429-58.224 75.453-60.568 75.582-60.665 77.157-61.854L77.82-62.353C78.416-62.799 78.494-63.045 78.5-63.131 78.512-63.316 78.229-63.599 77.954-63.871 77.509-64.313 76.956-64.863 76.863-65.689 76.771-66.562 77.176-67.258 77.946-67.55 78.926-67.921 80.156-67.515 80.808-66.603 81.952-64.994 82.164-63.424 79.859-60.154 78.28-57.915 75.073-56.263 72.242-54.805 70.889-54.107 69.611-53.448 68.751-52.836 68.713-52.809 68.677-52.782 68.644-52.757 69.775-52.991 72.028-53.773 74.663-55.192 79.078-57.574 79.917-58.534 82.16-61.1L82.864-61.902C84.992-64.327 85.799-64.881 87.281-65.806L87.373-65.864C84.96-67.926 82.287-70.17 79.412-72.545 79.336-70.283 78.89-67.916 76.27-67.347 73.688-66.769 69.1-67.768 64.586-69.903 61.565-71.338 61.182-72.053 60.903-72.575 60.774-72.816 60.709-72.937 60.074-73.177 59.451-73.411 58.816-73.46 58.082-73.517 56.63-73.628 54.824-73.767 52.38-75.507 49.722-77.407 50.515-79.232 51.354-81.165 51.78-82.145 52.262-83.256 52.424-84.567 52.733-87.017 52.124-87.516 50.652-88.724 49.924-89.321 49.018-90.064 48-91.249 46.738-92.725 45.751-95.234 45.067-98.711L44.896-99.611C21.016-117.3-.984-131.287-22.334-142.354-22.359-142.279-22.39-142.205-22.427-142.13-22.668-141.643-23.136-141.285-23.818-141.067-25.377-140.568-27.757-140.913-28.918-141.535-30.386-142.331-30.752-142.236-33.605-141.49-35.098-141.105-36.214-140.281-37.112-139.619-37.961-138.991-38.631-138.497-39.347-138.577-40.112-138.665-40.469-139.485-40.846-140.354-41.366-141.547-41.662-142.022-42.184-141.873-42.306-141.839-42.346-141.818-42.36-141.809-42.373-141.6-41.914-140.978-41.639-140.604-41.074-139.839-40.489-139.047-40.562-138.271-40.611-137.698-40.91-137.429-41.152-137.303-41.979-136.876-43.356-137.371-46.612-139.272-50.07-141.293-51.542-144.823-52.014-146.246-52.142-146.628-52.244-146.728-52.241-146.739-52.399-146.719-52.823-146.331-53.104-146.074-53.448-145.759-53.838-145.402-54.293-145.099-55.95-143.997-57.438-145.09-59.015-146.245L-59.541-146.628C-60.52-147.329-61.24-147.578-61.811-147.41-62.423-147.23-62.977-146.531-63.456-145.329-64.38-143.01-64.166-140.862-63.895-138.144-63.814-137.328-63.729-136.475-63.671-135.566-63.429-131.779-64.456-131.495-67.464-131.229-67.793-131.199-68.151-131.168-68.538-131.128-70.629-130.908-72.004-131.167-73.007-131.354-73.731-131.49-74.21-131.58-74.512-131.481-74.653-131.089-73.803-129.367-73.294-128.338-72.666-127.065-72.072-125.864-72.011-125.094-71.978-124.673-71.745-124.097-71.498-123.486-70.891-121.984-70.06-119.929-72.186-119.033-74.721-117.967-77.417-119.232-78.897-122.181L-79.188-122.768C-80.176-124.77-80.411-125.245-82.545-126.1-83.541-126.497-84.492-126.482-85.369-126.054-86.784-125.364-87.936-123.614-88.7-120.994-89.879-116.975-89.733-116.567-88.922-114.307-88.718-113.738-88.475-113.06-88.203-112.195-87.852-111.078-87.622-110.415-87.475-109.99-87.196-109.187-87.176-109.111-87.224-108.537-87.248-108.24-87.29-107.743-87.29-106.734-87.29-104.477-86.815-104.308-85.24-103.751-84.671-103.549-83.963-103.299-83.145-102.892-81.029-101.829-81.028-101.832-79.799-102.079-79.324-102.175-78.69-102.303-77.759-102.43-75.229-102.782-74.681-102.812-74.324-101.56-74.24-101.266-74.135-100.899-73.852-100.423-73.421-99.706-73.09-99.783-72.012-100.167-71.238-100.441-70.277-100.777-69.053-100.662-66.569-100.43-65.639-100.34-64.1-102.949-63.276-104.338-63.057-105.336-62.846-106.301-62.648-107.203-62.462-108.056-61.806-109.031-60.894-110.406-59.268-111.603-58.125-111.238-57.624-111.075-57.04-110.575-57.1-109.112-57.232-106.184-57.871-103.199-58.405-101.88-58.485-101.679-58.58-101.469-58.681-101.246-59.21-100.078-59.81-98.754-59.036-96.82-58.25-94.853-56.229-93.216-54.275-91.633-53.842-91.282-53.409-90.932-52.987-90.576-52.157-89.874-51.423-89.399-50.833-89.018-49.691-88.279-48.867-87.745-48.771-86.443-48.704-85.591-48.799-84.948-48.89-84.327-48.986-83.677-49.085-83.004-49.021-82.007-48.939-80.737-48.738-80.476-48.251-79.844-48.036-79.563-47.767-79.215-47.454-78.707-47.28-78.425-47.132-78.161-46.99-77.909-46.323-76.722-45.841-75.864-43.335-74.461-42.002-73.713-41.375-73.976-40.916-74.169-40.655-74.277-40.33-74.416-39.995-74.228-39.607-74.013-39.466-73.507-39.296-72.453-39.116-71.317-39.125-70.687-39.13-70.27-39.137-69.762-39.137-69.762-38.072-68.843-36.062-67.098-33.341-65.604-32.671-65.884-32.65-65.893-32.6-65.914-32.589-66.097L-32.564-66.499C-32.503-67.567-32.462-68.272-31.875-68.507-31.283-68.741-30.598-68.25-29.466-67.187-28.197-65.985-27.015-65.447-25.973-64.974-25.218-64.63-24.505-64.306-23.926-63.786-23.048-62.999-22.677-62.319-22.792-61.708-22.853-61.388-23.08-60.946-23.824-60.667-24.923-60.251-26.232-60.985-27.326-62.627-27.328-62.63-27.33-62.633-27.331-62.635-27.441-62.37-27.561-61.928-27.648-61.606-27.704-61.4-27.761-61.191-27.821-60.99-28.134-59.953-29.059-59.937-29.735-59.924-30.221-59.915-30.681-59.907-30.999-59.63-31.22-59.435-31.127-59.171-30.526-58.282-30.148-57.724-29.757-57.146-29.692-56.513-29.658-56.152-29.803-55.847-30.091-55.672-31.282-54.952-34.988-57.007-36.147-57.735-35.864-57.36-35.457-56.851-34.869-56.159-33.322-54.337-32.337-54.472-30.371-54.748-29.873-54.817-29.33-54.893-28.721-54.942-25.777-55.186-24.012-55.24-21.929-53.566-21.271-53.043-20.781-52.527-20.35-52.072-19.584-51.264-19.135-50.825-18.429-50.772-18.489-50.814-18.549-50.855-18.604-50.894-19.082-51.223-19.676-51.632-20.083-52.092-21.168-53.306-21.45-54.041-21.973-57.01-22.191-58.28-22.091-58.979-21.64-59.348-21.09-59.795-20.342-59.503-19.55-59.193-19.346-59.113-19.134-59.03-18.92-58.958-17.616-58.522-15.905-59.058-13.208-60.203-12.335-60.579-11.838-60.829-11.563-60.967-11.246-61.127-10.97-61.266-10.697-61.028-10.521-60.875-10.477-60.66-10.568-60.389-10.592-60.316-10.62-60.234-10.62-60.125-10.62-59.302-11.129-57.57-11.952-56.207-12.747-54.887-13.007-54.763-14.105-54.395L-14.242-54.35C-15.339-53.984-15.903-53.672-16.326-52.385L-16.479-51.942C-16.845-50.89-16.883-50.779-16.569-49.107-16.205-47.173-17.309-46.491-18.838-45.548-19.24-45.3-19.692-45.02-20.187-44.682-20.794-44.268-21.349-43.944-21.839-43.659-23.319-42.799-24.296-42.23-25.188-40.103-25.405-39.58-25.596-39.092-25.772-38.641-26.628-36.449-27.247-34.866-29.023-34.745-30.112-34.671-30.872-35.57-31.539-36.371-32.279-37.259-32.675-37.655-33.14-37.44-33.825-37.123-33.907-36.668-34.004-35.822-34.072-35.233-34.149-34.565-34.581-33.947-35.543-32.574-38.188-32.071-42.115-31.46-43.827-31.2-44.411-31.144-44.781-31.481-45.061-31.739-45.039-32.093-45.021-32.378-45.006-32.613-44.989-32.881-45.075-33.224-45.388-34.475-45.388-34.475-46.425-35.931L-46.899-36.598C-47.785-37.858-47.685-38.33-47.266-39.036-47.02-39.45-46.684-40.018-46.739-41.538-46.752-41.925-46.76-42.273-46.766-42.586-46.813-44.879-46.813-44.879-49.16-44.975-50.49-45.029-51.099-45.117-51.428-45.52-51.708-45.863-51.643-46.273-51.573-46.708-51.505-47.136-51.42-47.667-51.535-48.433-51.584-48.769-51.629-49.104-51.672-49.43-51.786-50.276-51.935-51.392-52.113-51.831-52.155-51.784-52.206-51.72-52.268-51.63-53.011-50.552-53.097-49.328-53.18-48.145-53.213-47.669-53.246-47.211-53.317-46.78-53.613-45.049-54.155-44.976-55.706-44.973L-56.09-44.975C-57.708-44.975-58.603-44.653-60.406-42.851-60.77-42.486-61.129-42.173-61.456-41.887-62.172-41.261-62.689-40.809-62.719-40.317-62.745-39.901-62.436-39.343-61.778-38.608-59.565-36.142-57.684-34.889-54.55-32.886-52.935-31.851-52.554-32.155-52.217-32.422-51.92-32.658-51.422-33.053-50.623-32.495-50.414-32.349-50.225-32.191-50.056-32.033-49.808-32.824-48.965-33.281-48.086-33.68-47.59-33.905-46.965-34.115-46.53-33.764-46.037-33.36-46.212-32.589-46.381-31.846-46.5-31.309-46.414-30.784-46.305-30.12-46.213-29.563-46.11-28.933-46.11-28.164-46.11-27.366-45.976-27.316-45.103-26.991-44.702-26.842-44.204-26.656-43.608-26.338-43.25-26.151-42.962-25.976-42.747-25.812-41.937-26.171-40.707-25.749-39.696-24.729-38.817-23.849-39.451-23.115-39.829-22.677-40.138-22.318-40.43-21.98-40.43-21.475-40.43-21.465-40.43-21.456-40.429-21.447-40.316-21.489-40.117-21.597-39.86-21.844-39.417-22.271-38.9-23.06-38.9-23.875-38.9-24.499-38.747-24.927-38.432-25.182-37.989-25.54-37.407-25.416-36.941-25.317-36.764-25.279-36.545-25.232-36.384-25.23-36.872-25.611-38.407-26.277-40.636-26.662-43.102-27.094-43.581-27.992-43.887-28.954-43.929-29.086-43.967-29.213-44.027-29.331-44.187-29.652-44.178-29.98-44-30.257-43.692-30.736-42.87-31.207-39.142-31.064-37.036-30.984-36.849-31.169-36.063-31.92-35.66-32.307-35.107-32.835-34.145-33.506-32.275-34.803-31.741-35.034-31.288-34.75-30.88-34.494-30.958-34.001-31.027-33.565-31.046-33.444-31.068-33.311-31.083-33.168-31.117-32.868-30.875-32.691-30.13-32.312-29.676-32.08-29.162-31.818-28.801-31.401-27.771-30.207-28.301-29.346-29.264-27.783-29.417-27.535-29.557-27.324-29.677-27.145-29.726-27.072-29.776-26.997-29.822-26.927-29.478-26.904-28.917-26.904-28.3-26.904-26.943-26.904-26.324-26.838-26.005-26.424-25.729-26.064-25.839-25.646-25.956-25.202-26.034-24.909-26.13-24.543-26.161-24.094-26.211-23.298-26.375-22.846-26.707-22.578-27.104-22.26-27.577-22.331-28.077-22.41-28.331-22.449-28.619-22.494-28.93-22.494-29.638-22.494-29.792-21.94-29.923-20.162L-29.951-19.799C-30.055-18.376-30.327-18.101-31.351-17.763-31.565-17.692-31.827-17.605-32.148-17.473-34.423-16.53-35.778-15.571-35.895-15.179-35.886-15.087-35.664-14.189-30.556-11.039-29.734-10.527-28.925-10.098-28.211-9.718-26.49-8.805-25.247-8.144-25.03-7.042-24.943-6.607-25.145-6.354-25.273-6.243-25.959-5.642-27.662-6.185-32.49-7.84-33.429-8.161-34.446-8.51-35.527-8.87-39.903-10.326-40.06-10.455-39.974-11.023-39.893-11.554-39.417-11.563-38.268-11.583-37.937-11.588-37.56-11.595-37.166-11.613-36.454-11.65-36.116-11.725-35.961-11.776-36.053-11.911-36.221-12.101-36.343-12.239L-36.51-12.431C-36.847-12.824-37.878-12.937-38.876-13.044-39.623-13.125-40.395-13.209-41.078-13.417-42.872-13.975-44.997-16.61-45.558-17.863-46.157-19.23-44.914-20.701-43.492-21.504-43.839-21.713-44.738-21.952-45.468-21.752-45.834-21.651-46.182-21.628-46.461-21.609-46.641-21.597-46.976-21.574-47.015-21.519-47.046-21.475-47.179-21.183-46.769-19.71-46.213-17.742-44.995-16.463-43.92-15.333-43.345-14.729-42.849-14.207-42.517-13.646-42.373-13.397-42.038-12.817-42.446-12.453-42.94-12.011-43.521-12.379-46.897-14.878L-47.417-15.263C-49.186-16.573-49.819-17.779-50.431-18.945-50.857-19.759-51.298-20.6-52.153-21.511-53.248-22.668-54.603-23.345-55.61-23.722-55.319-23.404-54.947-23.028-54.48-22.602L-54.036-22.193C-52.713-20.984-51.839-20.186-52.764-18.797-52.864-18.646-52.872-18.223-51.792-17.078-51.625-16.901-51.314-16.571-51.611-16.22-51.912-15.864-52.224-16.072-52.697-16.389-53.751-17.089-54.072-17.11-56.161-17.25-56.81-17.293-57.617-17.348-58.652-17.437L-59.28-17.49C-61.792-17.702-62.468-17.76-62.828-18.266-63.096-18.643-62.99-19.058-62.856-19.584L-62.767-19.948C-62.584-20.735-62.837-20.918-63.511-21.406-63.848-21.65-64.268-21.954-64.672-22.4-65.045-22.816-65.392-23.259-65.184-23.704-64.975-24.151-64.467-24.132-63.882-24.112-63.649-24.103-63.392-24.096-63.135-24.108-63.461-24.449-64.21-24.965-64.932-25.162-65.527-25.326-65.74-25.256-65.814-25.2-65.931-25.11-66.07-24.809-66.07-23.875-66.07-23.073-66.321-22.497-66.816-22.161-67.674-21.583-69.175-21.773-71.685-22.779-75.543-24.317-89.931-34.019-92.073-36.291-97.552-42.074-97.46-42.169-97.077-42.565-96.728-42.928-96.329-42.572-96.177-42.437-95.544-41.874-93.478-40.756-91.874-39.932-92.231-40.461-92.689-41.121-93.255-41.901-94.949-44.247-100.599-52.16-102.144-55.495-103.222-57.845-103.381-58.45-102.467-59.004-102.331-59.087-102.202-59.165-102.065-59.325-101.915-59.695-103.392-61.282-104.471-62.441-105.206-63.23-106.038-64.125-106.871-65.111-109.813-68.583-114.424-76.022-115.064-80.393-115.348-82.321-115.55-83.014-115.729-83.626-115.952-84.388-116.127-84.988-116.338-87.371-116.713-91.724-115.957-93.32-114.524-94.606-113.765-95.287-113.958-98.575-114.086-100.751-114.14-101.655-114.19-102.51-114.19-103.204-114.19-105.132-114.451-105.827-114.754-106.632-114.853-106.897-114.955-107.167-115.048-107.48-115.467-108.868-114.755-109.2-113.854-109.62-113.593-109.742-113.281-109.888-112.916-110.085-112.225-110.456-112.253-110.842-112.456-112.125-112.573-112.87-112.72-113.798-112.669-114.964-112.579-117.257-111.037-118.271-109.951-118.271H-109.916C-109.165-118.257-108.64-117.772-108.64-117.095-108.64-116.524-108.81-115.981-109.006-115.354-109.293-114.438-109.65-113.3-109.65-111.534-109.65-109.846-110.127-108.579-110.588-107.354-110.986-106.296-111.363-105.297-111.42-104.062-111.477-102.837-111.188-101.707-110.867-100.856-110.838-101.292-110.809-101.824-110.779-102.469L-110.77-102.659C-110.646-105.206-110.604-106.063-108.957-109.357-108.272-110.731-107.963-111.417-107.696-112.011-107.321-112.842-107.024-113.499-105.92-115.561-104.753-117.735-104.848-118.88-104.968-120.329-105.032-121.106-105.105-121.987-104.966-123.097-104.543-126.465-99.974-129.143-98.023-130.286-97.556-130.56-97.095-130.864-96.629-131.172-94.966-132.27-93.081-133.515-90.57-133.515-87.624-133.515-86.234-133.629-84.622-134.002-84.185-134.104-83.897-134.478-83.427-135.131-82.664-136.192-81.619-137.645-78.853-138.54-76.656-139.251-75.825-139.198-75.273-139.166-74.821-139.143-74.635-139.127-73.552-139.867-71.747-141.101-70.994-142.662-70.197-144.313-69.987-144.749-69.774-145.189-69.541-145.63-68.397-147.776-66.117-149.564-63.441-150.411-61.767-150.941-61.546-151.127-61.014-151.575-60.804-151.753-60.552-151.965-60.174-152.239-59.753-152.545-59.201-152.875-58.659-152.698-57.993-152.483-57.735-151.697-57.309-150.396L-57.125-149.842C-57.014-149.505-56.742-148.943-56.164-148.943H-56.154C-55.284-148.953-53.976-150.184-53.158-152.861-52.8-154.029-52.499-154.989-52.241-155.791L-52.153-156.062C-64.875-161.119-77.467-165.053-89.587-167.753-97.94-169.616-105.713-170.561-112.69-170.561-121.74-170.561-129.645-168.976-136.189-165.849-137.938-157.015-138.825-147.924-138.825-138.825-138.825-62.276-76.548 0 0 0M95.436-54.382C95.139-54.382 94.613-54.322 93.796-54.091 92.75-53.791 91.886-53.846 91.125-53.893 89.842-53.976 88.83-54.035 87.182-52.497 85.6-51.021 84.951-49.8 84.685-49.065 86.263-49.606 89.82-50.914 93.034-52.727 94.562-53.593 95.189-54.114 95.445-54.381 95.442-54.382 95.438-54.382 95.436-54.382M-137.073-166.534-136.678-166.724C-129.987-169.933-121.917-171.561-112.69-171.561-105.641-171.561-97.794-170.608-89.37-168.729-77.053-165.984-64.252-161.974-51.325-156.809-41.831-153.018-32.084-148.537-22.358-143.492-.667-132.289 21.684-118.081 45.972-100.058 50.278-96.859 54.712-93.486 59.528-89.745 66.594-84.243 73.309-78.872 79.487-73.78 82.752-71.087 85.768-68.557 88.449-66.26 92.37-62.904 95.853-59.84 98.797-57.154 101.559-54.657 104.144-52.229 106.702-49.731L107.284-49.162 106.758-48.54C80.106-17.057 41.194 1 0 1-77.1 1-139.825-61.726-139.825-138.825-139.825-148.01-138.927-157.188-137.158-166.104Z" fill="#030404"/>
<path transform="matrix(1,0,0,-1,206.8188,45.71199)" d="M0 0C.13-.132 .266-.259 .402-.385 .737-.698 1.054-.994 1.275-1.343 1.51-1.714 1.646-2.274 1.391-2.631 1.32-2.729 1.211-2.825 1.096-2.927 .981-3.028 .867-3.131 .766-3.245 .185-3.903 .047-4.949 .414-5.911 .708-6.684 1.247-7.307 1.82-7.93 2.497-8.665 3.183-9.348 4.128-9.623 5.202-9.934 6.578-9.491 6.916-8.335 7.12-7.638 6.865-6.952 6.68-6.452L6.164-5.058C7.595-6.244 8.773-8.065 9.676-10.494 10.121-11.688 10.726-12.293 11.476-12.293 11.536-12.293 11.597-12.289 11.659-12.281 12.004-12.237 12.279-12.068 12.529-11.899 13.603-11.179 14.615-10.355 15.539-9.452 16.906-8.115 17.331-6.691 16.673-5.645 16.207-4.902 15.379-4.634 14.559-4.368 11.744-3.449 9.209-1.765 6.754-.133 6.324 .153 5.853 .491 5.353 .85 3.311 2.312 .769 4.134-1.499 4.27L-2.063 4.304-2.028 3.739C-1.921 2.05-.449 .45 0 0" fill="#030404"/>
<path transform="matrix(1,0,0,-1,147.4633,135.29109)" d="M0 0 .149 .366-.518 .432C-1.66 .54-2.83 .395-3.908 .002-4.089-.064-4.569-.24-4.721-.716-4.796-.95-4.774-1.192-4.658-1.416-4.419-1.872-3.88-2.067-3.721-2.116-3.208-2.272-2.676-2.352-2.145-2.352-1.707-2.352-1.27-2.298-.842-2.191-.011-1.984 .493-1.467 .474-.841 .465-.549 .326-.268 .091-.069 .062-.044 .031-.021 0 0" fill="#030404"/>
<path transform="matrix(1,0,0,-1,139.5068,133.43759)" d="M0 0C-.906 .601-1.95 .953-2.852 1.219-3.538 1.42-4.341 1.624-5.149 1.541-5.795 1.472-6.372 1.209-6.786 .815L-6.583 1.219-6.997 1.453C-10.283 3.317-13.681 5.245-17.346 6.484-21.439 7.87-24.796 7.802-27.323 6.279-28.279 5.703-28.877 5.01-29.099 4.219-29.197 3.871-29.494 2.814-28.851 2.306-28.063 1.685-26.617 2.483-25.341 3.189-24.964 3.397-24.609 3.595-24.435 3.653-23.681 3.91-23.052 3.986-22.516 3.89-21.869 3.772-21.27 3.38-20.821 3.05-20.123 2.537-19.459 1.936-18.817 1.353-17.942 .56-17.038-.261-16.001-.905-14.299-1.964-11.604-2.679-9.61-1.203-9.49-1.114-9.373-1.018-9.258-.921-9.105-.793-8.954-.664-8.786-.561-8.607-.452-8.406-.368-8.206-.283-7.869-.139-7.501 .019-7.202 .278-7.226 .233-7.248 .188-7.269 .143-7.451-.262-7.486-.687-7.517-1.063-7.539-1.326-7.559-1.574-7.623-1.793-7.795-2.375-8.247-2.672-8.771-3.015-9.143-3.259-9.526-3.511-9.832-3.884L-10.272-4.422-9.622-4.668C-8.906-4.938-8.192-4.766-7.563-4.612-7.029-4.481-6.523-4.357-6.075-4.504-5.967-4.539-5.864-4.587-5.761-4.634-5.625-4.696-5.489-4.758-5.345-4.805-5.118-4.878-4.881-4.915-4.636-4.915-3.922-4.915-3.128-4.604-2.247-3.969-2.073-3.844-1.908-3.725-1.754-3.686-1.591-3.644-1.379-3.676-1.155-3.708L-1.016-3.728C-.209-3.839 .602-3.798 1.391-3.604 1.502-3.577 1.798-3.506 1.961-3.222 2.122-2.941 2.034-2.647 2.006-2.553 1.718-1.572 1.005-.665 0 0" fill="#030404"/>
<path transform="matrix(1,0,0,-1,152.5649,136.9659)" d="M0 0C-.124 .127-.381 .389-.758 .422H-.759C-1.027 .449-1.281 .354-1.472 .162-1.588 .045-1.674-.102-1.734-.262L-2.005-.075-2.008-1.021C-2.012-2.062-1.541-3.084-.748-3.756-.378-4.07 .015-4.234 .386-4.234 .497-4.234 .605-4.22 .711-4.189 1.3-4.027 1.712-3.389 1.668-2.705 1.633-2.169 1.363-1.712 1.103-1.336 .774-.859 .403-.41 0 0" fill="#030404"/>
<path transform="matrix(1,0,0,-1,294.3769,214.1895)" d="M0 0-.617-.448C-1.2-.872-2.146-2.143-1.555-3.916-1.331-4.588-1.027-4.927-.649-4.927-.587-4.927-.524-4.918-.458-4.899 .512-4.631 .465-2.091 .166-.744Z" fill="#030404"/>
<path transform="matrix(1,0,0,-1,309.5932,133.5977)" d="M0 0C-.796 .291-1.699 .62-3.166 3.296-3.97 4.781-5.094 7.324-6.187 9.851L-6.468 10.5-6.711 10.274-6.712 10.277-7.28 9.753C-18.046-.174-31.891-10.265-49.655-21.124L-50.651-21.699-50.613-21.711-51.359-22.163-49.939-22.345C-48.755-22.497-47.447-22.437-45.893-20.988-44.47-19.654-40.953-16.764-39.007-18.707-38.375-19.336-38.195-19.979-38.021-20.6-37.777-21.469-37.501-22.453-35.815-22.453-35.216-22.453-34.657-22.379-34.163-22.313-32.679-22.118-31.934-22.019-31.355-23.631-30.498-26.032-30.761-28.927-32.097-31.78-32.873-33.437-32.282-34.443-31.463-35.838-30.661-37.205-29.562-39.077-28.917-42.691-27.572-50.164-27.646-51.496-29.636-55.647-31.679-59.931-32.913-62.517-32.714-66.875-32.679-67.658-32.63-68.395-32.583-69.088-32.39-72.001-32.25-74.105-33.379-75.659-35.001-77.893-35.371-80.118-34.79-84.164-34.25-87.929-37.173-93.277-37.202-93.33L-37.483-93.839-36.939-94.041C-36.855-94.072-36.599-94.151-36.162-94.151-34.819-94.151-31.765-93.404-26.736-88.231-22.436-83.807-20.18-80.47-18.533-78.032-17.623-76.685-16.904-75.62-16.117-74.771-14.795-73.339-14.648-72.394-14.462-71.196-14.312-70.227-14.125-69.021-13.193-67.067-11.097-62.672-8.775-59.229-6.988-56.724-5.263-54.317-4.425-50.689-4.425-45.633-4.425-42.293-4.067-37.108-2.365-31.375-2.119-30.547-1.893-29.808-1.685-29.127-.592-25.557 .01-23.59 .493-18.782 .602-17.692 .746-16.413 .9-15.052 1.931-5.916 2.233-1.683 1.297-.747 .858-.312 .422-.153 0 0" fill="#030404"/>
<path transform="matrix(1,0,0,-1,210.3315,183.32819)" d="M0 0C-.435 .205-.893 .367-1.243 .485L-1.442 .553-1.96 .289C-5.25-1.378-8.542-3.028-11.823-4.66-21.979-9.709-32.083-14.601-40.627-18.721-44.558-20.616-48.662-22.444-52.828-24.155-54.22-24.729-55.625-25.29-57.039-25.84-58.711-26.489-60.467-27.146-62.409-27.85L-63.48-28.236-62.47-28.763C-60.798-29.635-59.16-31.17-58.499-36.454-57.857-41.601-58.074-44.438-58.233-46.509-58.387-48.521-58.489-49.851-57.708-51.798-56.233-55.498-56.233-56.891-56.233-59.942-56.233-61.389-56.651-62.227-57.02-62.966-57.401-63.73-57.761-64.453-57.543-65.541-57.361-66.447-56.953-67.211-56.558-67.949-56.098-68.81-55.663-69.621-55.663-70.552-55.663-71.815-54.954-72.413-54.384-72.894-53.917-73.287-53.629-73.552-53.569-74.023L-53.486-74.646C-53.346-75.648-53.304-75.95-53.709-76.776-53.864-77.083-54.075-77.313-54.278-77.535-54.721-78.018-55.328-78.678-54.407-79.782-54.123-80.123-53.88-80.637-53.574-81.287-52.944-82.622-52.081-84.449-50.027-86.625-47.908-88.877-43.584-91.977-38.813-91.977-37.59-91.977-36.338-91.773-35.086-91.3L-33.036-90.524-35.22-90.334C-35.261-90.33-39.361-89.944-41.106-87.336-42.581-85.112-41.671-84.236-40.295-82.91-40.144-82.765-39.991-82.617-39.84-82.467-39.228-81.858-39.005-81.255-39.18-80.676-39.505-79.597-41.107-79.226-41.424-79.162-41.795-79.087-42.181-78.721-42.234-78.394-42.247-78.312-42.287-78.064-41.836-77.807-40.407-76.994-39.81-75.333-40.278-73.471-40.466-72.72-40.933-71.872-41.324-71.196-40.84-71.421-40.265-71.622-39.623-71.622-38.322-71.622-37.722-69.904-37.283-68.65-37.208-68.438-37.141-68.244-37.079-68.088-36.875-67.577-34.16-66.893-31.663-66.893-30.706-66.893-30.017-66.602-29.616-66.027-29.096-65.283-29.118-64.169-29.683-62.622-29.996-61.759-30.278-61.08-30.511-60.563-29.385-60.828-27.726-61.025-26.348-60.398-24.625-59.623-23.432-57.73-21.781-55.111-21.268-54.297-20.706-53.406-20.067-52.449-18.235-49.704-18.298-48.702-18.385-47.315-18.428-46.635-18.477-45.864-18.29-44.681-17.792-41.539-13.631-40.406-9.77-39.592-6.103-38.816-3.826-36.553-2.389-32.249-1.763-30.363-1.589-28.293-1.421-26.292-1.227-23.974-1.025-21.578-.131-19.401 .559-17.72 1.749-16.271 2.899-14.869 4.574-12.828 6.157-10.899 6.157-8.412 6.157-4.798 4.028-1.889 0 0" fill="#030404"/>
<path transform="matrix(1,0,0,-1,299.0571,203.01569)" d="M0 0C-.396-2.177-.23-3.289 .522-3.501 .58-3.518 .659-3.539 .759-3.539 1.253-3.539 2.273-2.999 3.99 1.436 6.243 7.255 8.523 14.275 8.546 14.346L9.699 17.901 7.652 14.773C7.372 14.345 .768 4.22 0 0" fill="#030404"/>
<path transform="matrix(1,0,0,-1,307.2167,127.633899)" d="M0 0 1.063-3.824 .982 .145C.981 .181 .901 3.825 .415 7.779L.289 8.8-.436 8.07-.774 7.742C-1.112 7.407-1.45 7.073-1.793 6.739L-2.327 6.22-2.195 5.905C-1.096 3.273-.358 1.287 0 0" fill="#030404"/>
<path transform="matrix(1,0,0,-1,324.975,102.25299)" d="M0 0-9.553 18.371-10.033 17.942C-10.529 17.499-60.263-26.7-114.528-56.266-177.285-90.458-233.898-106.522-273.954-101.493-290.218-99.452-300.62-93.705-304.871-84.412-310.008-73.179-305.158-58.308-298.44-47.266-299.868-54.923-301.72-75.995-281.209-84.075-274.678-86.648-267.007-87.92-258.3-87.92-228.657-87.918-187.039-73.179-137.788-44.886-67.29-4.387-24.902 43.162-24.482 43.638L-24.149 44.016-39.343 57.249 16.913 63.975ZM-41.699 57.974-25.569 43.926C-29.698 39.371-71.244-5.505-138.286-44.019-201.736-80.468-252.364-94.36-280.843-83.146-305.13-73.576-296.927-45.009-296.842-44.721L-295.891-41.532-297.737-44.301C-305.357-55.731-311.473-72.381-305.78-84.828-301.376-94.457-290.71-100.397-274.078-102.485-269.227-103.094-264.144-103.396-258.831-103.396-220.046-103.394-169.407-87.304-114.05-57.145-62.541-29.08-15.118 12.135-9.848 16.771L.306-2.756 18.256 65.143Z" fill="#030404"/>
<path transform="matrix(1,0,0,-1,316.2836,150.7511)" d="M0 0C0-76.543-62.272-138.814-138.815-138.814-185.727-138.814-229.121-115.385-254.896-76.141L-255.006-75.921-255.295-75.905C-257.175-75.801-301.01-73.016-302.249-42.121-300.708-45.643-291.929-62.241-263.279-63.196L-262.431-63.234C-258.522-63.479-254.33-63.491-249.969-63.273-224.933-62.06-202.896-58.42-180.62-51.819-162.008-46.316-142.535-38.538-121.091-28.042-115.203-25.167-108.951-21.974-102.507-18.55-101.245-17.878-99.993-17.207-98.748-16.531L-91.515-12.543C-90.74-12.108-89.973-11.674-89.208-11.239H-89.207L-87.908-10.502C-87.027-9.998-85.999-9.408-85.129-8.906L-85.13-8.905-84.742-8.681C-77.02-4.205-69.296 .523-61.784 5.374L-61.257 5.717C-58.616 7.429-56.263 8.977-54.044 10.464-52.264 11.657-50.509 12.849-48.782 14.036-47.025 15.243-45.296 16.446-43.599 17.644L-42.858 18.168C-42.157 18.662-41.459 19.157-40.772 19.647L-40.273 20.008C-39.029 20.899-37.81 21.782-36.61 22.658L-31.3 26.59-31.209 26.659C-30.448 27.23-29.696 27.799-28.956 28.361L-25.308 31.167-22.872 33.071C-22.057 33.714-21.256 34.349-20.473 34.976L-20.147 35.237C-19.474 35.776-18.819 36.306-18.166 36.836L-17.546 37.34C-16.931 37.842-16.331 38.334-15.737 38.824L-14.987 39.441C-14.174 40.114-13.393 40.771-12.633 41.412L-12.238 41.743C-12.234 41.746-12.231 41.749-12.228 41.752L-12.211 41.767C-10.634 43.101-9.118 44.408-7.692 45.664-6.818 43.154-5.97 40.434-5.17 37.576L-4.915 36.704-4.917 36.702-4.852 36.467C-1.632 24.642 0 12.372 0 0M-89.345-10.742V-10.743-10.742M-85.442-8.508V-8.509-8.508ZM-18.711 37.681C-19.356 37.157-20.101 36.556-20.773 36.018L-21.099 35.756C-21.879 35.132-22.678 34.497-23.497 33.852L-29.562 29.156C-30.3 28.596-31.051 28.029-31.808 27.459L-37.203 23.464C-38.397 22.591-39.614 21.71-40.857 20.819L-41.223 20.556H-41.291L-41.402 20.427C-42.072 19.948-42.751 19.467-43.436 18.983L-44.176 18.46C-45.869 17.267-47.594 16.065-49.348 14.86-51.073 13.675-52.825 12.485-54.623 11.28-56.816 9.811-59.164 8.265-61.801 6.557L-62.328 6.214C-69.825 1.372-77.535-3.348-85.299-7.849L-85.692-8.076C-86.549-8.57-87.544-9.142-88.401-9.632L-89.592-10.308C-90.393-10.762-91.195-11.216-92.003-11.671L-99.226-15.653C-100.468-16.326-101.716-16.997-102.977-17.667-109.41-21.085-115.652-24.273-121.53-27.144-142.924-37.615-162.345-45.373-180.904-50.86-203.102-57.438-225.063-61.065-250.018-62.275-254.244-62.487-258.31-62.479-262.106-62.252L-264.1-62.141-264.088-62.164C-294.447-60.802-301.498-41.347-301.566-41.149L-303.378-35.791-303.27-41.446C-302.666-72.938-259.96-76.597-255.639-76.886L-255.587-76.909C-229.61-116.305-185.978-139.814-138.815-139.814-61.721-139.814 1-77.094 1 0 1 12.379-.623 24.655-3.823 36.493L-3.822 36.495-4.569 39.172-4.579 39.151C-5.292 41.619-6.042 43.975-6.809 46.17L-7.239 47.398-8.224 46.528C-9.658 45.264-11.197 43.936-12.799 42.578L-13.091 42.333-13.272 42.18C-14.036 41.536-14.815 40.882-15.659 40.183L-16.373 39.596C-16.965 39.107-17.565 38.615-18.178 38.115Z" fill="#030404"/>
<path transform="matrix(1,0,0,-1,297.31,207.6817)" d="M0 0-.177-.12-.212-.331C-.212-.331-.338-1.09-.718-3.492-.754-3.719-.849-4.318-.36-4.503-.29-4.529-.222-4.541-.156-4.541 .273-4.541 .6-4.026 .786-3.732 .806-3.702 2.663-.664 1.722 .247 1.162 .787 .287 .196 0 0" fill="#030404"/>
<path transform="matrix(1,0,0,-1,262.1528,60.991304)" d="M0 0C.266-.734 .916-1.956 2.497-3.432 4.146-4.97 5.157-4.91 6.44-4.827 7.201-4.78 8.066-4.726 9.112-5.025 9.929-5.257 10.455-5.316 10.751-5.316 10.754-5.316 10.757-5.316 10.76-5.315 10.505-5.049 9.877-4.527 8.349-3.661 5.136-1.849 1.578-.541 0 0" fill="#ffffff"/>
<path transform="matrix(1,0,0,-1,158.8178,18.562592)" d="M0 0C1.071 .024 2.082 .049 3.068 .273 3.883 .459 4.654 .777 5.47 1.113 5.906 1.293 6.342 1.473 6.786 1.632 8.465 2.233 9.858 2.342 11.043 1.958 11.611 1.775 12.122 1.482 12.616 1.199 13.271 .824 13.89 .47 14.558 .416 14.866 .396 15.201 .429 15.554 .469 16.243 .545 17.021 .632 17.712 .22 18.538-.272 18.817-1.213 19.062-2.043 19.331-2.946 19.53-3.508 20.039-3.694 20.153-3.737 20.273-3.757 20.393-3.779 20.588-3.815 20.811-3.857 21.031-3.96 21.868-4.35 22.059-5.224 22.228-5.995 22.356-6.581 22.478-7.135 22.84-7.363 22.895-7.397 22.953-7.426 23.01-7.454 23.162-7.529 23.351-7.622 23.512-7.789 23.754-8.039 23.997-8.512 23.771-9.344L23.708-9.565C23.633-9.813 23.563-10.048 23.598-10.229 23.611-10.302 23.693-10.378 23.729-10.387L24.386-9.979 24.427-10.759C24.595-12.011 24.63-13.401 23.628-14.222 23.004-14.733 22.219-14.791 21.526-14.843 21.093-14.874 20.683-14.904 20.33-15.031 19.578-15.301 19.06-16.014 18.512-16.769 17.913-17.592 17.294-18.443 16.293-18.838 15.981-18.962 15.662-19.026 15.354-19.09 14.93-19.176 14.529-19.258 14.256-19.481 13.877-19.792 13.713-20.404 13.768-21.304L13.793-21.669C13.848-22.384 13.91-23.195 13.575-23.937 13.438-24.242 13.25-24.501 13.068-24.751 12.833-25.075 12.629-25.355 12.586-25.658 12.533-26.032 12.728-26.454 12.935-26.901 13.217-27.512 13.538-28.203 13.278-28.954L13.17-29.269 12.838-29.29C12.591-29.306 12.344-29.314 12.097-29.314 8.228-29.314 4.391-27.354 2.161-24.185 1.508-23.256 .942-22.181 .38-20.802-.048-19.751-.484-18.501-.469-17.193-.454-15.899 .032-14.732 .849-13.982 .578-13.563 .125-13.229-.349-12.88-.615-12.684-.881-12.487-1.124-12.273-2.459-11.094-3.07-9.413-3.661-7.789L-3.856-7.255C-3.97-6.949-4.078-6.684-4.253-6.525-4.457-6.343-4.794-6.272-5.122-6.217-7.069-5.884-9.05-5.932-11.75-6.369L-14.447-6.808-12.08-5.442C-11.145-4.903-10.247-4.251-9.296-3.561-7.489-2.249-5.621-.893-3.448-.344-2.307-.055-1.134-.027 0 0M25.928-16.376C26.276-15.873 27.055-15.783 27.846-15.761 30.413-15.692 32.983-15.935 35.488-16.492L35.727-16.546 35.832-16.768C36.072-17.278 36.159-17.867 36.076-18.427 36.03-18.728 35.94-18.969 35.799-19.163 35.663-19.352 35.495-19.479 35.333-19.593 34.172-20.416 32.884-21.021 31.506-21.388 31.349-21.43 31.18-21.47 30.993-21.47H30.948C30.499-21.457 30.143-21.219 29.825-20.963 29.284-20.528 28.785-20.046 28.304-19.579 27.811-19.101 27.345-18.649 26.832-18.24 26.735-18.164 26.625-18.096 26.52-18.029 26.193-17.824 25.823-17.591 25.735-17.161 25.682-16.902 25.747-16.639 25.928-16.376M30.527-.979C30.641-.243 31.818 .021 32.403 .044L35.408 .011C37.738-.016 40.637-.048 42.993-1.38L42.747-1.815 42.501-2.251C42.5-2.25 42.499-2.249 42.497-2.248 42.02-1.982 40.888-1.984 40.064-1.993 39.708-1.993 39.381-1.996 39.124-1.98 37.891-1.905 36.651-1.879 35.433-1.875 35.088-1.877 34.644-1.931 34.174-1.987 33.205-2.104 32.202-2.224 31.455-1.997 30.553-1.722 30.486-1.241 30.527-.979M46.502-22.88C48.77-23.016 51.312-24.837 53.354-26.3 53.854-26.658 54.325-26.996 54.755-27.282 57.21-28.914 59.745-30.599 62.56-31.518 63.38-31.783 64.208-32.052 64.674-32.794 65.332-33.841 64.907-35.265 63.54-36.602 62.616-37.505 61.604-38.328 60.53-39.049 60.28-39.218 60.005-39.387 59.66-39.431 59.598-39.438 59.537-39.442 59.477-39.442 58.727-39.442 58.122-38.838 57.677-37.644 56.774-35.215 55.596-33.394 54.165-32.207L54.681-33.602C54.866-34.102 55.121-34.787 54.917-35.484 54.579-36.641 53.203-37.083 52.129-36.772 51.184-36.497 50.498-35.814 49.821-35.079 49.248-34.456 48.709-33.833 48.415-33.061 48.048-32.099 48.186-31.053 48.767-30.395 48.868-30.28 48.982-30.178 49.097-30.076 49.212-29.975 49.321-29.879 49.392-29.78 49.647-29.424 49.511-28.863 49.276-28.492 49.055-28.144 48.738-27.848 48.403-27.534 48.267-27.408 48.131-27.281 48.001-27.149 47.552-26.699 46.08-25.1 45.973-23.41L45.938-22.846ZM-5.542-122.593C-5.647-122.623-5.756-122.638-5.867-122.638-6.238-122.638-6.631-122.474-7.001-122.159-7.793-121.487-8.265-120.465-8.261-119.425L-8.258-118.479-7.987-118.665C-7.927-118.505-7.841-118.358-7.725-118.241-7.534-118.05-7.28-117.954-7.012-117.981H-7.011C-6.634-118.015-6.376-118.276-6.253-118.403-5.85-118.813-5.479-119.263-5.15-119.739-4.89-120.115-4.62-120.572-4.585-121.108-4.541-121.792-4.953-122.431-5.542-122.593M-12.196-118.92C-12.624-119.026-13.062-119.08-13.499-119.08-14.031-119.08-14.562-119.001-15.075-118.845-15.235-118.796-15.773-118.601-16.012-118.145-16.129-117.921-16.151-117.679-16.076-117.444-15.923-116.969-15.443-116.793-15.263-116.727-14.184-116.334-13.014-116.188-11.873-116.297L-11.206-116.362-11.354-116.729C-11.323-116.75-11.293-116.772-11.264-116.798-11.029-116.996-10.889-117.277-10.88-117.569-10.862-118.195-11.366-118.713-12.196-118.92M-17.35-118.097C-17.513-118.381-17.809-118.452-17.92-118.479-18.709-118.673-19.52-118.714-20.327-118.603L-20.466-118.583C-20.69-118.551-20.902-118.519-21.065-118.561-21.219-118.6-21.384-118.719-21.558-118.844-22.439-119.479-23.233-119.79-23.947-119.79-24.192-119.79-24.429-119.753-24.656-119.68-24.8-119.633-24.936-119.571-25.072-119.509-25.175-119.462-25.278-119.414-25.386-119.379-25.834-119.232-26.34-119.356-26.874-119.487-27.503-119.641-28.217-119.813-28.933-119.543L-29.583-119.297-29.143-118.759C-28.837-118.386-28.454-118.134-28.082-117.89-27.559-117.547-27.106-117.25-26.935-116.668-26.87-116.449-26.85-116.201-26.828-115.938-26.797-115.562-26.762-115.137-26.58-114.732-26.559-114.687-26.537-114.642-26.513-114.597-26.812-114.856-27.18-115.014-27.518-115.158-27.717-115.243-27.918-115.327-28.097-115.436-28.265-115.539-28.416-115.668-28.569-115.796-28.685-115.893-28.801-115.989-28.921-116.078-30.915-117.554-33.61-116.839-35.312-115.78-36.349-115.136-37.253-114.315-38.128-113.522-38.77-112.939-39.434-112.338-40.132-111.825-40.581-111.495-41.18-111.103-41.827-110.985-42.363-110.889-42.992-110.965-43.746-111.222-43.92-111.28-44.275-111.478-44.652-111.686-45.928-112.392-47.374-113.19-48.162-112.569-48.805-112.061-48.508-111.004-48.41-110.656-48.188-109.865-47.59-109.172-46.634-108.596-44.107-107.073-40.75-107.005-36.657-108.391-32.992-109.63-29.594-111.558-26.308-113.422L-25.894-113.656-26.097-114.06C-25.684-113.666-25.106-113.403-24.46-113.334-23.652-113.251-22.849-113.455-22.163-113.656-21.261-113.922-20.217-114.274-19.311-114.875-18.306-115.54-17.593-116.447-17.305-117.428-17.277-117.522-17.189-117.816-17.35-118.097M-31.369-120.489C-31.905-120.817-32.526-120.976-33.147-120.976-34.067-120.976-34.989-120.629-35.645-119.975L-37.543-119.45-35.839-118.96C-34.255-118.504-32.553-118.387-30.921-118.621L-30.522-118.679-30.494-119.081C-30.456-119.612-30.775-120.125-31.369-120.489M-37.959-103.939-37.779-103.602-37.406-103.687C-37.122-103.754-36.829-103.794-36.534-103.78-36.56-103.547-36.563-103.298-36.515-103.048-36.398-102.446-35.983-101.981-35.457-101.865-35.108-101.786-34.721-101.898-34.447-102.153-34.198-102.386-34.081-102.699-34.127-103.014-34.146-103.149-34.192-103.261-34.228-103.35-34.242-103.382-34.256-103.414-34.265-103.447-34.272-103.476-34.242-103.527-34.193-103.57-34.115-103.639-34.004-103.67-33.941-103.645-33.861-103.614-33.804-103.539-33.769-103.448L-34.031-100.221-33.463-101.369-33.169-99.54-32.945-101.378C-32.731-101.385-32.56-101.48-32.5-101.514-31.884-101.856-31.491-102.582-31.473-103.408-31.458-104.079-31.671-104.711-31.858-105.268-31.913-105.43-31.996-105.675-32.191-105.867-32.508-106.18-32.901-106.189-33.226-106.168L-33.301-106.634-33.36-106.155C-33.373-106.154-33.386-106.152-33.398-106.151-33.459-106.145-33.52-106.14-33.578-106.136-33.734-106.586-34.166-106.926-34.608-107.024-34.741-107.054-34.872-107.066-35.001-107.066-35.383-107.066-35.743-106.954-36.062-106.843-36.612-106.649-37.179-106.407-37.604-105.948-38.138-105.374-38.284-104.547-37.959-103.939M-36.963-97.943C-36.83-97.82-36.675-97.717-36.504-97.635-35.966-97.381-35.307-97.417-34.74-97.732-34.254-98.003-33.907-98.437-33.776-98.926L-33.668-98.993-33.736-99.119C-33.733-99.14-33.73-99.159-33.728-99.18L-33.77-99.185-34.14-99.873C-34.41-99.751-34.758-99.772-35.071-99.93-35.383-100.087-35.606-100.354-35.669-100.644L-35.788-101.19-36.318-101.012C-36.886-100.82-37.323-100.298-37.459-99.649-37.595-99-37.405-98.347-36.963-97.943M-30.736-107.313C-30.688-107.11-30.584-106.928-30.436-106.792-29.95-106.346-29.253-106.397-28.877-106.427L-26.365-106.614-26.263-106.939C-25.988-107.822-26.657-108.71-27.454-108.984-27.502-109.001-27.551-109.016-27.599-109.029L-26.859-109.505-28.17-109.114C-28.645-109.13-29.112-109.039-29.562-108.924-30.019-108.808-30.483-108.644-30.78-108.231L-31.625-107.055ZM-25.122-111.094C-25.147-111.695-25.72-112.109-26.547-112.126-26.602-112.127-26.656-112.127-26.71-112.127-27.343-112.127-27.974-112.066-28.589-111.947-28.919-111.884-29.338-111.687-29.522-111.329-29.634-111.11-29.639-110.867-29.537-110.645L-29.446-110.448-29.98-109.935-26.636-109.973C-26.381-109.976-25.749-110.024-25.379-110.414-25.201-110.603-25.112-110.837-25.122-111.094M-94.04-163.924C-87.063-163.924-79.29-162.979-70.937-161.116-58.817-158.416-46.225-154.482-33.503-149.425L-33.59-149.154C-33.849-148.353-34.15-147.393-34.507-146.225-35.325-143.547-36.634-142.316-37.503-142.307H-37.514C-38.091-142.307-38.363-142.868-38.475-143.205L-38.658-143.76C-39.085-145.061-39.343-145.847-40.008-146.062-40.551-146.238-41.103-145.908-41.523-145.603-41.901-145.328-42.153-145.116-42.364-144.938-42.896-144.49-43.116-144.305-44.79-143.774-47.467-142.928-49.747-141.14-50.891-138.993-51.124-138.553-51.336-138.112-51.546-137.677-52.343-136.025-53.096-134.464-54.902-133.23-55.984-132.49-56.171-132.506-56.622-132.529-57.175-132.562-58.006-132.614-60.203-131.903-62.968-131.008-64.013-129.556-64.776-128.494-65.247-127.841-65.534-127.467-65.972-127.365-67.584-126.992-68.974-126.878-71.919-126.878-74.431-126.878-76.316-125.633-77.978-124.535-78.445-124.228-78.906-123.923-79.372-123.649-81.324-122.506-85.893-119.828-86.315-116.46-86.455-115.351-86.382-114.47-86.317-113.692-86.198-112.243-86.103-111.099-87.27-108.924-88.374-106.862-88.67-106.205-89.045-105.374-89.313-104.78-89.622-104.095-90.307-102.721-91.954-99.427-91.996-98.569-92.12-96.022L-92.129-95.832C-92.158-95.187-92.188-94.655-92.216-94.22-92.538-95.07-92.827-96.2-92.77-97.425-92.712-98.66-92.336-99.659-91.938-100.717-91.477-101.942-90.999-103.209-90.999-104.897-90.999-106.663-90.643-107.802-90.356-108.717-90.159-109.345-89.989-109.888-89.989-110.458-89.989-111.136-90.515-111.62-91.266-111.635H-91.3C-92.387-111.635-93.928-110.62-94.019-108.327-94.069-107.161-93.923-106.233-93.805-105.488-93.602-104.205-93.575-103.819-94.266-103.448-94.63-103.251-94.943-103.105-95.204-102.983-96.105-102.563-96.816-102.231-96.398-100.844-96.304-100.53-96.203-100.261-96.103-99.995-95.801-99.19-95.539-98.495-95.539-96.567-95.539-95.873-95.489-95.019-95.436-94.114-95.308-91.938-95.115-88.65-95.873-87.97-97.307-86.684-98.063-85.087-97.687-80.734-97.477-78.352-97.301-77.751-97.079-76.989-96.9-76.377-96.697-75.685-96.414-73.756-95.774-69.386-91.163-61.946-88.221-58.475-87.388-57.488-86.555-56.594-85.82-55.805-84.742-54.645-83.265-53.059-83.414-52.688-83.551-52.528-83.681-52.45-83.817-52.367-84.731-51.813-84.572-51.208-83.494-48.858-81.948-45.523-76.299-37.61-74.604-35.265-74.039-34.484-73.581-33.824-73.224-33.295-74.828-34.119-76.894-35.237-77.527-35.801-77.678-35.936-78.078-36.291-78.427-35.929-78.81-35.532-78.901-35.437-73.422-29.654-71.28-27.382-56.893-17.681-53.035-16.143-50.525-15.137-49.023-14.946-48.166-15.524-47.671-15.86-47.419-16.437-47.419-17.238-47.419-18.172-47.28-18.474-47.164-18.563-47.09-18.619-46.876-18.689-46.281-18.525-45.56-18.328-44.811-17.812-44.485-17.472-44.741-17.459-44.999-17.466-45.231-17.476-45.816-17.495-46.324-17.515-46.533-17.067-46.741-16.622-46.394-16.18-46.021-15.764-45.617-15.317-45.198-15.014-44.861-14.77-44.186-14.281-43.934-14.099-44.117-13.312L-44.206-12.947C-44.34-12.421-44.445-12.006-44.177-11.629-43.817-11.123-43.142-11.065-40.63-10.854L-40.002-10.8C-38.967-10.711-38.159-10.656-37.51-10.613-35.422-10.474-35.101-10.452-34.046-9.752-33.574-9.436-33.262-9.228-32.96-9.583-32.664-9.935-32.975-10.265-33.142-10.441-34.222-11.586-34.214-12.01-34.113-12.16-33.188-13.549-34.062-14.348-35.386-15.557L-35.83-15.965C-36.297-16.392-36.668-16.768-36.96-17.085-35.953-16.708-34.598-16.031-33.503-14.874-32.648-13.963-32.206-13.122-31.78-12.309-31.168-11.143-30.536-9.937-28.767-8.626L-28.247-8.241C-24.871-5.742-24.29-5.374-23.795-5.816-23.388-6.181-23.723-6.761-23.867-7.009-24.198-7.57-24.695-8.093-25.27-8.696-26.344-9.826-27.562-11.105-28.119-13.073-28.528-14.546-28.395-14.838-28.365-14.882-28.326-14.938-27.99-14.96-27.81-14.973-27.531-14.991-27.184-15.015-26.817-15.115-26.087-15.315-25.188-15.076-24.841-14.867-26.264-14.064-27.507-12.594-26.907-11.227-26.347-9.974-24.222-7.338-22.428-6.78-21.745-6.572-20.973-6.488-20.226-6.407-19.228-6.3-18.196-6.187-17.86-5.794L-17.693-5.603C-17.571-5.464-17.403-5.274-17.311-5.14-17.466-5.088-17.804-5.014-18.515-4.977-18.909-4.958-19.287-4.951-19.617-4.946-20.767-4.926-21.242-4.917-21.323-4.387-21.41-3.818-21.253-3.689-16.877-2.233-15.796-1.873-14.779-1.524-13.839-1.203-9.012 .452-7.309 .995-6.623 .394-6.495 .282-6.293 .029-6.379-.405-6.596-1.507-7.839-2.168-9.561-3.081-10.274-3.461-11.083-3.891-11.905-4.402-17.014-7.553-17.236-8.45-17.245-8.542-17.128-8.935-15.773-9.894-13.498-10.836-13.177-10.969-12.915-11.056-12.7-11.126-11.676-11.464-11.405-11.739-11.301-13.162L-11.273-13.525C-11.142-15.304-10.988-15.857-10.279-15.857-9.968-15.857-9.681-15.813-9.427-15.773-8.926-15.694-8.454-15.623-8.056-15.941-7.724-16.209-7.561-16.661-7.51-17.457-7.479-17.906-7.383-18.272-7.306-18.565-7.188-19.009-7.078-19.428-7.355-19.787-7.674-20.201-8.292-20.268-9.649-20.268-10.267-20.268-10.827-20.268-11.171-20.29-11.125-20.36-11.075-20.436-11.027-20.508-10.907-20.687-10.766-20.898-10.614-21.146-9.65-22.709-9.12-23.57-10.151-24.765-10.511-25.182-11.026-25.443-11.479-25.675-12.225-26.055-12.467-26.231-12.433-26.531-12.417-26.674-12.396-26.808-12.377-26.929-12.308-27.364-12.23-27.857-12.638-28.113-13.091-28.397-13.625-28.166-15.495-26.869-16.457-26.198-17.01-25.67-17.413-25.283-18.199-24.532-18.386-24.348-20.492-24.428-24.22-24.57-25.041-24.1-25.35-23.62-25.528-23.344-25.537-23.016-25.376-22.694-25.317-22.576-25.279-22.449-25.236-22.317-24.931-21.355-24.452-20.457-21.986-20.025-19.757-19.641-18.221-18.975-17.734-18.594-17.895-18.596-18.114-18.643-18.291-18.681-18.757-18.779-19.338-18.903-19.781-18.545-20.096-18.29-20.25-17.862-20.25-17.238-20.25-16.423-20.767-15.635-21.21-15.207-21.467-14.96-21.665-14.853-21.779-14.811-21.779-14.819-21.779-14.828-21.779-14.838-21.779-15.344-21.487-15.682-21.178-16.04-20.8-16.479-20.167-17.212-21.046-18.092-22.057-19.112-23.287-19.534-24.096-19.175-24.312-19.339-24.6-19.515-24.958-19.701-25.553-20.02-26.052-20.205-26.453-20.354-27.325-20.68-27.459-20.729-27.459-21.527-27.459-22.296-27.563-22.927-27.655-23.483-27.764-24.147-27.85-24.672-27.731-25.209-27.562-25.952-27.386-26.724-27.88-27.127-28.314-27.479-28.939-27.269-29.436-27.043-30.315-26.645-31.158-26.187-31.406-25.396-31.575-25.555-31.764-25.712-31.973-25.858-32.772-26.416-33.27-26.021-33.567-25.785-33.904-25.519-34.285-25.214-35.899-26.249-39.034-28.252-40.914-29.505-43.127-31.972-43.786-32.706-44.094-33.265-44.069-33.681-44.039-34.172-43.522-34.624-42.806-35.25-42.478-35.536-42.12-35.85-41.756-36.214-39.953-38.017-39.058-38.338-37.439-38.338L-37.056-38.336C-35.504-38.339-34.963-38.412-34.667-40.144-34.596-40.574-34.562-41.032-34.529-41.508-34.447-42.691-34.361-43.915-33.618-44.993-33.556-45.083-33.504-45.147-33.463-45.194-33.284-44.755-33.135-43.64-33.022-42.793-32.978-42.468-32.934-42.132-32.884-41.796-32.769-41.03-32.854-40.499-32.923-40.071-32.993-39.637-33.058-39.227-32.777-38.883-32.448-38.48-31.839-38.393-30.51-38.338-28.163-38.242-28.163-38.242-28.116-35.949-28.109-35.637-28.102-35.288-28.089-34.901-28.033-33.381-28.37-32.813-28.615-32.399-29.035-31.693-29.135-31.222-28.248-29.961L-27.775-29.294C-26.737-27.838-26.737-27.838-26.424-26.587-26.338-26.244-26.355-25.977-26.371-25.741-26.389-25.456-26.411-25.103-26.13-24.845-25.761-24.507-25.176-24.563-23.464-24.823-19.538-25.435-16.893-25.937-15.93-27.311-15.499-27.929-15.422-28.597-15.354-29.186-15.257-30.031-15.174-30.486-14.489-30.804-14.025-31.019-13.628-30.622-12.888-29.734-12.222-28.934-11.462-28.034-10.373-28.108-8.597-28.229-7.978-29.812-7.122-32.004-6.946-32.455-6.755-32.943-6.538-33.466-5.646-35.594-4.668-36.162-3.189-37.022-2.699-37.308-2.144-37.631-1.537-38.045-1.042-38.384-.589-38.663-.187-38.911 1.341-39.854 2.446-40.536 2.082-42.471 1.767-44.143 1.806-44.253 2.172-45.306L2.324-45.748C2.748-47.035 3.311-47.348 4.409-47.713L4.545-47.759C5.643-48.126 5.903-48.25 6.699-49.57 7.521-50.934 8.031-52.665 8.031-53.488 8.031-53.598 8.058-53.68 8.083-53.752 8.173-54.023 8.13-54.238 7.954-54.392 7.68-54.629 7.405-54.49 7.087-54.33 6.812-54.192 6.315-53.942 5.443-53.566 2.746-52.421 1.035-51.886-.27-52.321-.484-52.394-.695-52.477-.899-52.557-1.691-52.866-2.44-53.158-2.99-52.711-3.441-52.343-3.541-51.644-3.322-50.373-2.8-47.404-2.518-46.669-1.433-45.455-1.025-44.995-.431-44.586 .046-44.257 .102-44.219 .161-44.178 .222-44.136-.484-44.188-.934-44.627-1.7-45.436-2.131-45.891-2.62-46.406-3.278-46.93-5.362-48.604-7.127-48.549-10.07-48.306-10.679-48.256-11.223-48.181-11.72-48.111-13.687-47.835-14.671-47.7-16.219-49.522-16.806-50.214-17.214-50.724-17.497-51.099-16.338-50.37-12.632-48.315-11.44-49.035-11.153-49.21-11.007-49.516-11.042-49.876-11.107-50.51-11.498-51.087-11.876-51.645-12.477-52.534-12.57-52.798-12.349-52.993-12.03-53.27-11.571-53.278-11.084-53.287-10.409-53.3-9.483-53.316-9.171-54.354-9.111-54.555-9.054-54.764-8.998-54.97-8.911-55.291-8.791-55.733-8.681-55.998-8.679-55.996-8.677-55.993-8.675-55.99-7.582-54.349-6.272-53.614-5.173-54.03-4.43-54.31-4.202-54.751-4.142-55.071-4.027-55.683-4.397-56.362-5.275-57.149-5.854-57.669-6.567-57.993-7.322-58.337-8.365-58.811-9.546-59.349-10.816-60.551-11.948-61.613-12.632-62.104-13.225-61.87-13.812-61.636-13.853-60.931-13.914-59.862L-13.938-59.46C-13.949-59.277-14-59.256-14.021-59.247-14.69-58.968-17.412-60.461-19.422-62.206-20.487-63.125-20.487-63.125-20.48-63.634-20.474-64.051-20.465-64.681-20.646-65.816-20.816-66.87-20.957-67.376-21.344-67.591-21.679-67.779-22.004-67.641-22.266-67.532-22.725-67.339-23.352-67.076-24.685-67.824-27.191-69.228-27.673-70.085-28.34-71.272-28.482-71.524-28.63-71.788-28.804-72.07-29.117-72.578-29.385-72.927-29.601-73.207-30.087-73.839-30.289-74.101-30.371-75.37-30.435-76.367-30.335-77.04-30.24-77.69-30.148-78.312-30.054-78.954-30.121-79.807-30.216-81.108-31.041-81.643-32.183-82.381-32.772-82.763-33.507-83.237-34.337-83.939-34.759-84.295-35.192-84.645-35.625-84.996-37.579-86.579-39.6-88.216-40.385-90.184-41.16-92.117-40.56-93.441-40.03-94.609-39.93-94.832-39.834-95.042-39.754-95.243-39.221-96.562-38.581-99.547-38.45-102.476-38.39-103.938-38.974-104.438-39.475-104.602-40.618-104.966-42.244-103.77-43.156-102.395-43.811-101.419-43.998-100.566-44.196-99.664-44.407-98.699-44.625-97.701-45.45-96.312-46.989-93.703-47.918-93.793-50.402-94.025-51.627-94.141-52.588-93.805-53.361-93.53-54.44-93.146-54.77-93.069-55.201-93.786-55.485-94.263-55.589-94.629-55.673-94.923-56.031-96.176-56.579-96.145-59.108-95.793-60.039-95.666-60.673-95.538-61.148-95.442-62.378-95.195-62.378-95.192-64.495-96.255-65.312-96.662-66.02-96.912-66.589-97.114-68.164-97.671-68.64-97.84-68.64-100.098-68.64-101.106-68.598-101.604-68.573-101.9-68.525-102.475-68.545-102.55-68.824-103.354-68.971-103.778-69.201-104.441-69.552-105.559-69.824-106.423-70.067-107.102-70.271-107.67-71.082-109.931-71.229-110.338-70.049-114.357-69.286-116.978-68.134-118.728-66.718-119.417-65.841-119.846-64.891-119.86-63.895-119.463-61.76-118.608-61.525-118.133-60.538-116.131L-60.247-115.544C-58.767-112.596-56.07-111.33-53.536-112.396-51.41-113.292-52.241-115.348-52.848-116.85-53.095-117.46-53.328-118.036-53.361-118.457-53.422-119.228-54.016-120.429-54.643-121.701-55.152-122.73-56.003-124.452-55.862-124.845-55.56-124.943-55.081-124.854-54.356-124.718-53.354-124.53-51.979-124.271-49.888-124.491-49.5-124.531-49.143-124.562-48.813-124.592-45.806-124.858-44.778-125.143-45.02-128.93-45.079-129.838-45.164-130.691-45.245-131.507-45.516-134.226-45.73-136.373-44.805-138.692-44.326-139.895-43.772-140.594-43.161-140.773-42.589-140.941-41.87-140.692-40.891-139.991L-40.365-139.608C-38.788-138.453-37.3-137.36-35.643-138.462-35.188-138.766-34.798-139.122-34.454-139.437-34.172-139.694-33.749-140.082-33.59-140.103-33.594-140.091-33.491-139.991-33.364-139.609-32.892-138.187-31.419-134.656-27.962-132.636-24.706-130.734-23.329-130.239-22.502-130.666-22.26-130.792-21.961-131.062-21.912-131.635-21.839-132.41-22.423-133.202-22.989-133.968-23.264-134.341-23.723-134.963-23.71-135.172-23.696-135.182-23.655-135.202-23.534-135.236-23.011-135.386-22.715-134.91-22.196-133.717-21.818-132.849-21.461-132.028-20.697-131.94-19.981-131.86-19.311-132.354-18.461-132.982-17.564-133.645-16.448-134.469-14.955-134.854-12.102-135.6-11.736-135.694-10.268-134.898-9.106-134.276-6.727-133.932-5.167-134.431-4.486-134.648-4.018-135.006-3.777-135.493-3.74-135.568-3.708-135.643-3.684-135.717 17.666-124.65 39.667-110.663 63.546-92.975L63.717-92.074C64.401-88.598 65.389-86.088 66.651-84.612 67.668-83.428 68.574-82.685 69.303-82.087 70.774-80.879 71.384-80.38 71.075-77.931 70.913-76.619 70.43-75.509 70.004-74.528 69.165-72.596 68.372-70.77 71.03-68.87 73.475-67.13 75.281-66.991 76.732-66.88 77.467-66.823 78.101-66.774 78.725-66.54 79.36-66.301 79.424-66.18 79.553-65.938 79.833-65.416 80.215-64.701 83.236-63.267 87.75-61.131 92.338-60.132 94.92-60.71 97.541-61.279 97.987-63.646 98.063-65.908 100.938-63.533 103.611-61.289 106.023-59.228L105.931-59.169C104.45-58.244 103.642-57.69 101.515-55.266L100.811-54.463C98.568-51.897 97.729-50.937 93.313-48.556 90.678-47.137 88.425-46.354 87.294-46.12 87.328-46.145 87.364-46.172 87.402-46.199 88.261-46.812 89.54-47.471 90.893-48.168 93.723-49.626 96.931-51.278 98.509-53.518 100.814-56.787 100.603-58.357 99.458-59.966 98.806-60.878 97.577-61.284 96.597-60.913 95.827-60.621 95.421-59.926 95.514-59.053 95.606-58.227 96.16-57.677 96.604-57.234 96.879-56.962 97.163-56.68 97.15-56.494 97.144-56.408 97.066-56.162 96.471-55.716L95.807-55.217C94.232-54.028 94.104-53.932 90.079-51.587 87.906-50.317 86.915-49.226 86.322-48.572 86.195-48.434 86.056-48.279 85.964-48.198 85.899-48.258 85.79-48.377 85.604-48.613 84.277-50.332 83.7-50.356 81.699-50.178L81.199-50.134C80.253-50.055 79.803-50.095 79.598-50.139 79.671-50.233 79.805-50.379 80.046-50.586 80.738-51.174 81.194-51.603 81.217-52.172 81.241-52.758 80.801-53.241 80.074-53.969 79.675-54.365 79.26-54.671 78.894-54.941 78.589-55.166 78.128-55.506 78.108-55.645 78.109-55.645 78.132-55.777 78.502-56.056 79.239-56.609 80.151-57.549 80.306-58.88 80.43-59.941 80.043-61.02 79.155-62.086 77.962-63.518 76.641-63.496 75.688-63.489 74.922-63.481 74.539-63.494 74.276-63.918 74.01-64.344 73.874-64.761 73.765-65.096 73.613-65.562 73.47-66.001 73.017-66.125 72.553-66.25 72.085-65.938 71.43-65.36 70.177-64.241 70.177-64.241 69.074-64.021 68.761-63.959 68.371-63.881 67.858-63.763 65.929-63.315 65.473-61.9 64.945-60.263 64.692-59.479 64.405-58.59 63.924-57.63 63.423-56.625 62.676-55.723 62.017-54.926 61.073-53.786 60.391-52.962 60.676-52.171 60.906-51.536 61.655-51.326 62.198-51.225 63.138-51.051 64.351-50.967 65.636-50.877 67.667-50.736 70.447-50.544 71.009-49.877 71.071-49.804 71.08-49.748 71.073-49.686 70.901-47.964 68.135-45.068 65.49-43.839 64.441-43.348 63.276-43.246 62.341-43.165 61.354-43.079 60.641-43.017 60.442-42.437 60.263-41.914 60.668-41.399 61.381-40.739L61.835-40.321C64.05-38.287 66.34-36.184 66.34-33.905 66.34-32.421 65.617-31.111 64.851-29.726 64.347-28.812 63.825-27.868 63.513-26.853 63.405-26.5 63.298-26.168 63.2-25.864 62.743-24.45 62.554-23.865 63.065-23.565 63.554-23.28 64.03-23.665 65.308-25.046 67.873-27.81 69.257-28.702 71.232-28.867 72.182-28.946 73.26-29.036 73.461-28.851 73.485-28.829 73.541-28.742 73.541-28.415 73.541-28.056 73.707-27.848 73.847-27.736 74.268-27.4 74.903-27.546 75.576-27.699 75.805-27.751 76.154-27.83 76.362-27.842 76.229-27.409 75.729-27.125 75.158-26.8 74.485-26.417 73.723-25.983 73.39-25.2 73.205-24.767 73.183-24.313 73.163-23.875 73.113-22.807 73.065-21.798 70.472-20.929 68.991-20.435 68.194-20.38 67.554-20.336 67.143-20.308 66.805-20.275 66.458-20.164 67.294-20.863 68.115-21.504 68.833-22.063L69.419-22.521C71.178-23.908 72.167-25.641 71.941-26.937 71.838-27.522 71.484-27.958 70.969-28.13 69.877-28.496 68.874-27.437 67.6-26.095 67.107-25.575 66.547-24.985 65.933-24.425 64.752-23.356 63.255-22.764 62.033-22.879 61.595-22.92 60.991-23.078 60.6-23.596 60.394-23.874 59.888-24.285 58.858-23.891 56.668-23.051 52.746-18.606 53.163-14.158 53.32-12.482 51.508-11.422 49.591-10.299 48.582-9.708 47.539-9.098 46.767-8.368 46.381-8.002 45.209-6.889 45.673-5.668 46.167-4.422 47.738-4.4 49.045-4.797 51.848-5.656 54.581-6.771 57.17-8.111 57.684-8.377 58.203-8.653 58.726-8.932 62.03-10.691 65.435-12.508 68.863-12.123 67.892-11.325 66.971-10.431 66.115-9.454L65.048-8.237 66.615-8.641C72.907-10.261 78.579-13.74 83.582-16.81 92.439-22.276 100.955-27.777 107.802-34.961 108.534-35.734 109.269-36.578 109.536-37.645 109.825-38.812 109.381-40.287 108.141-40.735 108.041-40.775 107.921-40.81 107.801-40.843 107.637-40.889 107.468-40.936 107.414-41.004 107.4-41.04 107.438-41.129 107.585-41.228 107.787-41.364 108.054-41.422 108.236-41.367 108.476-41.298 108.714-41.178 108.968-41.051 109.458-40.804 110.013-40.528 110.658-40.599 111.298-40.677 111.78-41.064 112.183-41.421 114.094-43.099 115.708-45.072 116.975-47.287L117.031-47.438C117.037-47.47 117.18-48.199 117.304-49.297 119.83-47.003 122.213-44.761 124.57-42.461 98.11-11.256 59.512 6.637 18.65 6.637-57.898 6.637-120.174-55.64-120.174-132.188-120.174-141.287-119.288-150.378-117.539-159.212-110.995-162.339-103.089-163.924-94.04-163.924" fill="#ffffff"/>
<path transform="matrix(1,0,0,-1,285.6318,45.003999)" d="M0 0 15.194-13.233 14.861-13.611C14.441-14.087-27.946-61.636-98.444-102.135-147.696-130.428-189.314-145.167-218.956-145.169-227.664-145.169-235.334-143.897-241.866-141.324-262.376-133.244-260.525-112.172-259.097-104.515-265.814-115.557-270.664-130.428-265.527-141.661-261.277-150.954-250.875-156.701-234.61-158.742-194.555-163.771-137.942-147.707-75.185-113.515-20.92-83.949 28.814-39.75 29.311-39.307L29.791-38.878 39.343-57.249 56.256 6.726Z" fill="#ffffff"/>
<path transform="matrix(1,0,0,-1,230.8415,159.25949)" d="M0 0V0Z" fill="#ffffff"/>
<path transform="matrix(1,0,0,-1,297.8876,113.457508)" d="M0 0V0L.001-.001Z" fill="#ffffff"/>
<path transform="matrix(1,0,0,-1,310.4931,148.64949)" d="M0 0C-.154-1.361-.298-2.641-.407-3.73-.89-8.538-1.492-10.505-2.584-14.075-2.793-14.756-3.019-15.495-3.265-16.323-4.967-22.057-5.325-27.241-5.325-30.581-5.325-35.638-6.163-39.266-7.888-41.672-9.675-44.178-11.997-47.62-14.093-52.016-15.024-53.969-15.212-55.175-15.362-56.145-15.548-57.342-15.695-58.287-17.017-59.72-17.804-60.568-18.523-61.633-19.433-62.98-21.08-65.418-23.335-68.755-27.636-73.18-32.665-78.353-35.719-79.1-37.062-79.1-37.499-79.1-37.755-79.021-37.839-78.989L-38.383-78.787-38.102-78.278C-38.073-78.226-35.15-72.877-35.69-69.112-36.271-65.066-35.901-62.841-34.279-60.607-33.149-59.054-33.29-56.949-33.483-54.036-33.53-53.343-33.579-52.606-33.614-51.823-33.813-47.465-32.579-44.879-30.536-40.596-28.545-36.444-28.472-35.112-29.817-27.64-30.462-24.025-31.561-22.153-32.363-20.786-33.182-19.392-33.773-18.385-32.997-16.729-31.661-13.875-31.398-10.98-32.255-8.579-32.834-6.967-33.579-7.066-35.063-7.262-35.557-7.327-36.116-7.401-36.715-7.401-38.401-7.401-38.677-6.417-38.92-5.548-39.095-4.927-39.275-4.284-39.907-3.655-41.853-1.712-45.37-4.603-46.793-5.937-48.347-7.385-49.655-7.445-50.839-7.293L-52.259-7.111-51.513-6.659-51.551-6.647-50.555-6.072C-32.791 4.787-18.946 14.878-8.18 24.805L-7.612 25.329-7.611 25.326-7.368 25.552-7.087 24.902C-5.994 22.376-4.87 19.833-4.065 18.348-2.599 15.672-1.696 15.343-.9 15.052-.478 14.898-.042 14.739 .397 14.305 1.333 13.369 1.031 9.136 0 0M-2.89-40.021C-2.913-40.091-5.193-47.111-7.446-52.931-9.163-57.365-10.183-57.905-10.677-57.905-10.777-57.905-10.856-57.884-10.914-57.867-11.666-57.655-11.832-56.543-11.436-54.366-10.668-50.146-4.064-40.021-3.784-39.593L-1.737-36.465ZM-12.397-62.765C-12.583-63.059-12.91-63.573-13.339-63.573-13.405-63.573-13.473-63.562-13.543-63.535-14.032-63.351-13.937-62.751-13.901-62.524-13.521-60.122-13.395-59.363-13.395-59.363L-13.36-59.152-13.183-59.032C-12.896-58.836-12.021-58.245-11.461-58.785-10.52-59.696-12.377-62.734-12.397-62.765M-16.574-70.439C-16.64-70.458-16.704-70.467-16.766-70.467-17.143-70.467-17.447-70.128-17.671-69.456-18.263-67.683-17.316-66.412-16.733-65.988L-16.116-65.54-15.951-66.284C-15.651-67.631-15.604-70.171-16.574-70.439M-5.07 27.755C-4.726 28.089-4.389 28.423-4.05 28.758L-3.712 29.086-2.987 29.815-2.862 28.795C-2.375 24.841-2.295 21.196-2.294 21.16L-2.213 17.191-3.276 21.016C-3.634 22.303-4.373 24.289-5.472 26.921L-5.603 27.235ZM-97.263-49.548C-98.413-50.949-99.603-52.398-100.292-54.08-101.187-56.257-101.388-58.652-101.583-60.971-101.75-62.972-101.924-65.042-102.55-66.928-103.988-71.231-106.264-73.495-109.931-74.271-113.792-75.085-117.953-76.218-118.451-79.359-118.638-80.543-118.59-81.313-118.547-81.994-118.459-83.381-118.396-84.383-120.229-87.128-120.868-88.085-121.429-88.976-121.942-89.79-123.593-92.409-124.786-94.302-126.51-95.077-127.887-95.704-129.547-95.507-130.673-95.242-130.439-95.759-130.157-96.438-129.845-97.301-129.279-98.848-129.257-99.962-129.777-100.706-130.179-101.28-130.868-101.571-131.825-101.571-134.321-101.571-137.036-102.256-137.24-102.767-137.303-102.923-137.37-103.116-137.445-103.329-137.883-104.583-138.484-106.301-139.785-106.301-140.427-106.301-141.001-106.1-141.485-105.875-141.094-106.551-140.627-107.398-140.44-108.149-139.972-110.012-140.568-111.673-141.998-112.485-142.448-112.743-142.409-112.99-142.396-113.072-142.343-113.399-141.957-113.766-141.585-113.841-141.269-113.904-139.667-114.275-139.341-115.354-139.167-115.934-139.389-116.537-140.002-117.146-140.152-117.296-140.305-117.443-140.457-117.589-141.833-118.915-142.742-119.791-141.268-122.015-139.522-124.623-135.422-125.009-135.381-125.013L-133.197-125.203-135.248-125.979C-136.5-126.452-137.752-126.655-138.974-126.655-143.746-126.655-148.07-123.556-150.189-121.304-152.243-119.128-153.105-117.301-153.735-115.966-154.042-115.315-154.285-114.802-154.569-114.461-155.489-113.356-154.883-112.696-154.44-112.214-154.236-111.991-154.026-111.762-153.871-111.455-153.465-110.629-153.507-110.327-153.647-109.324L-153.731-108.702C-153.791-108.23-154.079-107.966-154.545-107.572-155.115-107.092-155.825-106.494-155.825-105.23-155.825-104.3-156.259-103.488-156.719-102.628-157.114-101.89-157.523-101.126-157.705-100.22-157.922-99.132-157.562-98.409-157.181-97.645-156.812-96.905-156.395-96.067-156.395-94.621-156.395-91.569-156.395-90.177-157.869-86.477-158.65-84.529-158.548-83.199-158.395-81.188-158.236-79.116-158.019-76.279-158.661-71.133-159.321-65.849-160.959-64.313-162.632-63.441L-163.642-62.915-162.571-62.528C-160.629-61.825-158.873-61.168-157.201-60.519-155.787-59.969-154.382-59.407-152.989-58.834-148.824-57.123-144.719-55.295-140.789-53.399-132.244-49.279-122.14-44.388-111.985-39.339-108.704-37.707-105.412-36.057-102.122-34.39L-101.604-34.126-101.405-34.193C-101.054-34.312-100.596-34.474-100.162-34.679-96.134-36.567-94.005-39.477-94.005-43.091-94.005-45.578-95.587-47.507-97.263-49.548M.874 34.601 .876 34.603 .621 35.475C-.18 38.332-1.028 41.053-1.901 43.563-3.328 42.307-4.844 40.999-6.42 39.665L-6.437 39.65C-6.44 39.647-6.444 39.645-6.448 39.642L-6.842 39.311C-7.603 38.669-8.384 38.013-9.196 37.34L-9.946 36.723C-10.54 36.232-11.141 35.74-11.756 35.238L-12.375 34.734C-13.028 34.204-13.684 33.675-14.357 33.136L-14.682 32.874C-15.465 32.247-16.266 31.612-17.082 30.97L-19.518 29.065-23.165 26.26C-23.906 25.697-24.658 25.129-25.418 24.558L-25.51 24.488-30.82 20.557C-32.019 19.681-33.239 18.798-34.483 17.906L-34.982 17.546C-35.669 17.056-36.366 16.561-37.067 16.066L-37.809 15.542C-39.505 14.345-41.234 13.142-42.991 11.935-44.719 10.747-46.474 9.556-48.253 8.362-50.473 6.875-52.825 5.327-55.466 3.615L-55.994 3.272C-63.505-1.578-71.229-6.307-78.951-10.782L-79.401-11.043-79.74-10.661-79.49-11.095C-80.361-11.597-81.237-12.1-82.117-12.604L-83.174-13.203-83.555-12.844-83.308-13.278C-84.109-13.734-84.913-14.188-85.724-14.645L-92.958-18.633C-94.203-19.309-95.454-19.979-96.716-20.651-103.16-24.075-109.413-27.269-115.3-30.144-136.745-40.64-156.217-48.418-174.83-53.921-197.106-60.521-219.142-64.161-244.179-65.375-248.539-65.593-252.732-65.58-256.641-65.336L-257.489-65.298C-286.138-64.343-294.917-47.744-296.459-44.223-295.22-75.117-251.384-77.902-249.505-78.007L-249.215-78.022-249.105-78.242C-223.331-117.486-179.936-140.916-133.025-140.916-56.482-140.916 5.791-78.645 5.791-2.102 5.791 10.271 4.158 22.54 .938 34.365Z" fill="#ffffff"/>
</g>
</g>
</svg>
