<svg xmlns="http://www.w3.org/2000/svg" xmlns:xlink="http://www.w3.org/1999/xlink" xmlns:inkscape="http://www.inkscape.org/namespaces/inkscape" version="1.1" width="748.268" height="249.335" viewBox="0 0 748.268 249.335">
<defs>
<clipPath id="clip_1">
<path transform="matrix(1,0,0,-1,0,249.335)" d="M0 249.335H748.268V0H0Z"/>
</clipPath>
</defs>
<g inkscape:groupmode="layer" inkscape:label="Layer 1">
<g clip-path="url(#clip_1)">
<path transform="matrix(1,0,0,-1,95.496,101.4124)" d="M0 0C-2.459 2.037-6.048 3.056-10.768 3.056H-23.571V-20.612H-10.768C-6.048-20.612-2.459-19.579 0-17.509 2.457-15.44 3.686-12.53 3.686-8.778 3.686-4.964 2.457-2.037 0 0M3.977-52.041-9.118-33.126H-9.895-23.571V-52.041H-39.285V15.859H-9.895C-3.88 15.859 1.341 14.855 5.771 12.853 10.2 10.847 13.611 8.002 16.005 4.316 18.396 .63 19.594-3.734 19.594-8.778 19.594-13.823 18.381-18.173 15.956-21.825 13.531-25.479 10.088-28.275 5.626-30.216L20.854-52.041Z" fill="#030404"/>
<path transform="matrix(1,0,0,-1,180.0781,140.84302)" d="M0 0V-12.61H-52.574V55.29H-1.261V42.68H-36.957V27.936H-5.432V15.714H-36.957V0Z" fill="#030404"/>
<path transform="matrix(1,0,0,-1,192.5898,85.55301)" d="M0 0H15.715V-55.096H49.762V-67.9H0Z" fill="#030404"/>
<path transform="matrix(1,0,0,-1,293.7607,138.4671)" d="M0 0C3.233 1.844 5.771 4.414 7.615 7.712 9.458 11.01 10.379 14.76 10.379 18.964 10.379 23.167 9.458 26.918 7.615 30.216 5.771 33.514 3.233 36.084 0 37.928-3.234 39.771-6.854 40.692-10.863 40.692-14.874 40.692-18.495 39.771-21.728 37.928-24.962 36.084-27.499 33.514-29.342 30.216-31.186 26.918-32.106 23.167-32.106 18.964-32.106 14.76-31.186 11.01-29.342 7.712-27.499 4.414-24.962 1.844-21.728 0-18.495-1.843-14.874-2.764-10.863-2.764-6.854-2.764-3.234-1.843 0 0M-29.924-11.591C-35.583-8.553-40.012-4.364-43.213 .971-46.414 6.306-48.015 12.303-48.015 18.964-48.015 25.624-46.414 31.622-43.213 36.957-40.012 42.292-35.583 46.479-29.924 49.519-24.267 52.558-17.913 54.078-10.863 54.078-3.816 54.078 2.522 52.558 8.148 49.519 13.774 46.479 18.203 42.292 21.437 36.957 24.67 31.622 26.287 25.624 26.287 18.964 26.287 12.303 24.67 6.306 21.437 .971 18.203-4.364 13.774-8.553 8.148-11.591 2.522-14.632-3.816-16.15-10.863-16.15-17.913-16.15-24.267-14.632-29.924-11.591" fill="#030404"/>
<path transform="matrix(1,0,0,-1,345.6064,150.1067)" d="M0 0C-5.594 3.007-9.99 7.178-13.191 12.513-16.393 17.848-17.993 23.877-17.993 30.604-17.993 37.328-16.393 43.359-13.191 48.694-9.99 54.029-5.594 58.2 0 61.207 5.593 64.214 11.883 65.718 18.867 65.718 24.751 65.718 30.07 64.683 34.823 62.613 39.576 60.543 43.568 57.569 46.803 53.689L36.715 44.378C32.122 49.68 26.433 52.332 19.643 52.332 15.438 52.332 11.688 51.41 8.391 49.567 5.093 47.724 2.522 45.153 .68 41.855-1.164 38.558-2.085 34.807-2.085 30.604-2.085 26.399-1.164 22.649 .68 19.352 2.522 16.054 5.093 13.483 8.391 11.64 11.688 9.797 15.438 8.876 19.643 8.876 26.433 8.876 32.122 11.559 36.715 16.927L46.803 7.614C43.568 3.669 39.56 .662 34.774-1.406 29.988-3.476 24.653-4.511 18.77-4.511 11.85-4.511 5.593-3.007 0 0" fill="#030404"/>
<path transform="matrix(1,0,0,-1,441.3935,126.97191)" d="M0 0-10.767 25.996-21.533 0ZM4.947-11.932H-26.577L-32.592-26.481H-48.693L-18.43 41.419H-2.909L27.451-26.481H10.962Z" fill="#030404"/>
<path transform="matrix(1,0,0,-1,486.5966,98.356708)" d="M0 0H-21.729V12.804H37.441V0H15.714V-55.097H0Z" fill="#030404"/>
<path transform="matrix(1,0,0,-1,0,249.335)" d="M532.477 163.782H548.191V95.881999H532.477Z" fill="#030404"/>
<path transform="matrix(1,0,0,-1,608.038,138.4671)" d="M0 0C3.233 1.844 5.771 4.414 7.615 7.712 9.458 11.01 10.379 14.76 10.379 18.964 10.379 23.167 9.458 26.918 7.615 30.216 5.771 33.514 3.233 36.084 0 37.928-3.234 39.771-6.854 40.692-10.863 40.692-14.874 40.692-18.495 39.771-21.728 37.928-24.962 36.084-27.499 33.514-29.342 30.216-31.186 26.918-32.106 23.167-32.106 18.964-32.106 14.76-31.186 11.01-29.342 7.712-27.499 4.414-24.962 1.844-21.728 0-18.495-1.843-14.874-2.764-10.863-2.764-6.854-2.764-3.234-1.843 0 0M-29.924-11.591C-35.583-8.553-40.012-4.364-43.213 .971-46.414 6.306-48.015 12.303-48.015 18.964-48.015 25.624-46.414 31.622-43.213 36.957-40.012 42.292-35.583 46.479-29.924 49.519-24.267 52.558-17.913 54.078-10.863 54.078-3.816 54.078 2.522 52.558 8.148 49.519 13.774 46.479 18.203 42.292 21.437 36.957 24.67 31.622 26.287 25.624 26.287 18.964 26.287 12.303 24.67 6.306 21.437 .971 18.203-4.364 13.774-8.553 8.148-11.591 2.522-14.632-3.816-16.15-10.863-16.15-17.913-16.15-24.267-14.632-29.924-11.591" fill="#030404"/>
<path transform="matrix(1,0,0,-1,708.4335,85.55301)" d="M0 0V-67.9H-12.901L-46.755-26.675V-67.9H-62.274V0H-49.276L-15.521-41.226V0Z" fill="#030404"/>
<path transform="matrix(1,0,0,-1,291.8945,233.41532)" d="M0 0V-4.751H-36.743V47.21H-1.113V42.459H-31.25V23.976H-4.379V19.3H-31.25V0Z" fill="#030404"/>
<path transform="matrix(1,0,0,-1,336.7294,238.1663)" d="M0 0-16.776 22.863-33.478 0H-39.787L-20.042 26.723-38.525 51.961H-32.216L-16.554 30.731-.965 51.961H4.973L-13.436 26.871 6.384 0Z" fill="#030404"/>
<path transform="matrix(1,0,0,-1,382.1581,213.5589)" d="M0 0C2.721 2.251 4.082 5.43 4.082 9.539 4.082 13.744 2.721 16.973 0 19.225-2.723 21.477-6.656 22.603-11.803 22.603H-25.609V-3.377H-11.803C-6.656-3.377-2.723-2.252 0 0M3.934 22.603C7.694 19.436 9.575 15.08 9.575 9.539 9.575 3.996 7.694-.347 3.934-3.488 .173-6.632-5.023-8.202-11.654-8.202H-25.609V-24.607H-31.103V27.354H-11.654C-5.023 27.354 .173 25.77 3.934 22.603" fill="#030404"/>
<path transform="matrix(1,0,0,-1,438.2001,230.92801)" d="M0 0C3.314 1.855 5.913 4.428 7.794 7.719 9.674 11.01 10.614 14.684 10.614 18.742 10.614 22.799 9.674 26.474 7.794 29.766 5.913 33.056 3.314 35.629 0 37.485-3.316 39.341-7.027 40.269-11.135 40.269-15.242 40.269-18.966 39.341-22.306 37.485-25.646 35.629-28.27 33.056-30.174 29.766-32.08 26.474-33.032 22.799-33.032 18.742-33.032 14.684-32.08 11.01-30.174 7.719-28.27 4.428-25.646 1.855-22.306 0-18.966-1.855-15.242-2.784-11.135-2.784-7.027-2.784-3.316-1.855 0 0M-25.127-4.231C-29.309-1.931-32.575 1.225-34.925 5.232-37.275 9.241-38.45 13.744-38.45 18.742-38.45 23.74-37.275 28.244-34.925 32.252-32.575 36.26-29.309 39.415-25.127 41.717-20.945 44.018-16.281 45.168-11.135 45.168-5.988 45.168-1.349 44.029 2.783 41.754 6.915 39.477 10.169 36.322 12.545 32.289 14.92 28.256 16.107 23.74 16.107 18.742 16.107 13.744 14.92 9.229 12.545 5.195 10.169 1.162 6.915-1.993 2.783-4.269-1.349-6.545-5.988-7.684-11.135-7.684-16.281-7.684-20.945-6.533-25.127-4.231" fill="#030404"/>
<path transform="matrix(1,0,0,-1,228.5803,214.6963)" d="M0 0-196.321 1.5 0 3C1.964 2.973 2.018 .042 0 0" fill="#030404"/>
<path transform="matrix(1,0,0,-1,475.1884,211.69641)" d="M0 0 234.002 .521 .026-3C-1.927-2.99-2.022-.062 0 0" fill="#030404"/>
<path transform="matrix(1,0,0,-1,112.0134,41.253404)" d="M0 0-79.832 1.5 0 3C1.998 3.001 2.017 .002 0 0" fill="#030404"/>
<path transform="matrix(1,0,0,-1,255.7314,38.253404)" d="M0 0 453.459-4.026-.016-3C-1.842-2.976-2.046-.065 0 0" fill="#030404"/>
<path transform="matrix(1,0,0,-1,135.4643,16.828904)" d="M0 0H-14.633V3.807H19.035V0H4.402V-37.833H0Z" fill="#231f20"/>
<path transform="matrix(1,0,0,-1,196.3168,13.021805)" d="M0 0V-41.64H-4.342V-22.426H-30.396V-41.64H-34.799V0H-30.396V-18.56H-4.342V0Z" fill="#231f20"/>
<path transform="matrix(1,0,0,-1,239.3246,50.85431)" d="M0 0V-3.807H-29.445V37.833H-.893V34.025H-25.044V19.213H-3.51V15.466H-25.044V0Z" fill="#231f20"/>
</g>
</g>
</svg>
