<svg width="270" height="270" viewBox="40 35 235 285" fill="none" xmlns="http://www.w3.org/2000/svg">
<path d="M181.61 39.98C202.49 39.85 222.87 42.72 242.26 50.89C251.93 54.96 260.99 60.12 269.4 66.39C273.8 69.67 274.72 72.92 272.14 77.68C262.88 94.75 251.48 110.12 234.99 120.9C205.39 140.24 166.09 141.42 135.34 116.29C122.41 105.72 112.63 92.82 104.73 78.33C102.04 73.39 102.96 69.35 107.78 65.75C113.9 61.19 120.52 57.39 127.32 53.92C141.08 46.89 155.44 41.66 170.9 40.04C174.44 39.66 178.04 39.98 181.61 39.98Z" fill="#141414"/>
<path d="M195.2 309.56C174.32 309.69 153.94 306.82 134.55 298.65C124.88 294.58 115.82 289.42 107.41 283.15C103.01 279.87 102.09 276.62 104.67 271.86C113.93 254.79 125.33 239.42 141.82 228.64C171.42 209.3 210.72 208.12 241.47 233.25C254.4 243.82 264.18 256.72 272.08 271.21C274.77 276.15 273.85 280.19 269.03 283.79C262.91 288.35 256.29 292.15 249.49 295.62C235.73 302.65 221.37 307.88 205.91 309.5C202.38 309.88 198.77 309.56 195.2 309.56Z" fill="#F58220"/>
<path d="M147.75 175.98C147.89 197.49 139.83 214.76 127.29 230.26C117.44 242.44 105.19 251.72 91.4099 259.03C85.0799 262.39 82.4499 261.72 78.2899 255.89C64.7499 236.91 56.1499 215.9 53.2299 192.78C49.4599 162.97 55.2899 134.93 69.8699 108.69C72.7999 103.42 75.8999 98.2499 79.6999 93.5499C82.5699 90.0099 85.4799 89.1799 89.3999 91.2699C109.78 102.16 127.36 116.11 138.17 137.14C144.6 149.64 147.84 162.99 147.75 175.98Z" fill="#141414"/>
<path d="M188.1 201.39C174.26 201.38 162.27 189.51 162.16 175.73C162.05 161.89 174.57 149.46 188.65 149.44C202 149.42 214.16 161.95 214.14 175.7C214.11 189.8 202.34 201.41 188.1 201.39Z" fill="#F58220"/>
</svg>
