<svg height="87.381" viewBox="0 0 243.744 87.381" width="243.744" xmlns="http://www.w3.org/2000/svg"><g transform="translate(0 1)"><g fill="#fff"><path d="m98.012 7.91-11.767 14.058 13 16.081h-7.076l-10.67-14.078v-3.626l10.264-12.435zm-19.406 30.139h-5.112v-30.139h5.112z"/><path d="m106.287 38.049h-5.112v-30.139h5.112z"/><path d="m117.185 7.91v25.291h10.956v4.848h-16.068v-30.139z"/><path d="m132.964 38.05v-30.139h5.3l9.359 22.867 9.163-22.867h5.113v30.139h-4.727v-20.993l-7.483 20.993h-4.361l-7.638-20.993v20.993z"/><path d="m180.57 33.413q8.334 0 8.332-10.518 0-10.347-8.332-10.348-8.548 0-8.548 10.348 0 10.518 8.548 10.518m-13.848-10.391q0-15.321 13.85-15.321 13.638 0 13.637 15.321 0 15.239-13.637 15.239-13.235 0-13.85-15.239"/><path d="m199.03 38.008v-30.1h12.538q8.449 0 8.449 8.073 0 5.46-6.578 9.042l8.738 13.028h-6.447l-8.388-13.132v-2.551q7.332-1.368 7.33-6.217 0-3.33-3.433-3.33h-7v25.187z"/><path d="m224.589 7.91v30.141h19.153v-4.85h-14.138v-7.9h13.213v-4.997h-13.156v-7.588h13.811v-4.806z"/></g><path d="m94.713 75.518c-2.283.939-4.731 1.412-7.2 1.392q-14.987 0-14.986-15.7 0-14.86 14.465-14.86c2.626-.023 5.236.405 7.717 1.266v3.366c-2.322-.972-4.813-1.474-7.33-1.476q-11.284 0-11.284 11.7 0 12.541 11.112 12.541c1.326-.019 2.646-.188 3.934-.505v-10.243h3.572z" fill="#30b5d9"/><path d="m100.596 76.698v-30.139h11.767q7.869 0 7.868 7.229 0 5.882-7.7 8.7l9.475 14.21h-4.71l-8.773-13.553v-2.55q7.908-1.37 7.91-6.639 0-4.173-4.4-4.173h-7.868v26.915z" fill="#30b5d9"/><path d="m138.654 73.748q9.876 0 9.876-12.2 0-12.034-9.876-12.034-10.09-.004-10.088 12.028 0 12.2 10.088 12.2m-13.848-12.071q0-15.323 13.851-15.323 13.636 0 13.637 15.323 0 15.239-13.637 15.239-13.851 0-13.851-15.239" fill="#30b5d9"/><path d="m157.692 65.064v-18.506h3.569v18.506q0 8.683 7.91 8.684 7.91.001 7.907-8.684v-18.506h3.569v18.506q0 11.846-11.476 11.846-11.476 0-11.479-11.846" fill="#30b5d9"/><path d="m187.013 76.698v-30.139h11.187q8.452 0 8.448 8.073 0 8.788-11.554 10.728l-.732-3.288q8.488-1.373 8.488-7.272 0-5.017-4.978-5.016h-7.29v26.914z" fill="#30b5d9"/><path d="m8.443 42.217-8.385-8.385 16.829-16.829v16.8c0 9.239-.014 16.8-.03 16.8s-3.8-3.773-8.414-8.385" fill="#124353"/><path d="m8.443 76.223-8.385-8.385 16.829-16.829v16.8c0 9.239-.014 16.8-.03 16.8s-3.8-3.773-8.414-8.385" fill="#30b5d9"/><path d="m33.519 66.798c-5.733-5.875-8.556-8.669-11.927-11.791l-4.415-4.1 11.917-.024c6.554-.017 11.935-.013 11.955.01s.027 5.342.011 11.82l-.03 11.783z" fill="#206779"/><path d="m23.117 44.851 5.94-5.863 4.716 4.634c2.6 2.55 5.266 5.189 5.938 5.866l1.219 1.232h-11.877-11.877z" fill="#49d0f6"/><path d="m23.116 32.832-5.938-5.858h11.877 11.877l-1.687 1.7c-.928.934-3.6 3.574-5.937 5.869l-4.253 4.152z" fill="#124353"/><path d="m17.003 38.824v-11.8l2.3 2.265c5.754 5.679 9.58 9.5 9.58 9.562 0 .039-2.674 2.7-5.94 5.923l-5.94 5.851z" fill="#206779"/><path d="m0 67.663 8.414-8.414 8.414-8.414-8.414-8.415-8.414-8.412z" fill="#49d0f6"/><path d="m0 33.655 8.414-8.412 8.414-8.414-16.828-16.829z" fill="#30b5d9"/><path d="m25.74 18.16c4.769-4.777 10.18-10.158 12.022-11.951l3.348-3.268v23.9h-24.047z" fill="#afe9f7"/><path d="m57.183 0v85.381" fill="none" stroke="#fff" stroke-width=".5"/></g></svg>