<?xml version="1.0" encoding="UTF-8"?>
<svg id="Layer_2" data-name="Layer 2" xmlns="http://www.w3.org/2000/svg" viewBox="0 0 310.11 167.7">
  <defs>
    <style>
      .cls-1 {
        fill: #231f20;
        stroke-width: 0px;
      }
    </style>
  </defs>
  <g id="Layer_1-2" data-name="Layer 1">
    <path class="cls-1" d="M171.48,107.21c-1.47-.63-2.1-.77-3.5-.77-3.5,0-6.36,2.38-8.39,5.11-.14-2.03-.63-3.64-1.47-5.11l-8.39,2.24c.77,2.03,1.33,5.66,1.33,10.49v23.92h9.37v-25.32c1.75-2.03,3.64-3.01,5.73-3.01,1.05,0,1.82.21,2.73.7l2.59-8.25ZM241.56,139.17c-3.15-2.38-3.43-4.06-3.36-7.97l.21-12.03c.07-3.85-.14-4.97-.63-6.43-1.4-3.99-5.52-6.22-11.54-6.22-3.29,0-6.29.63-9.79,2.1-2.52,1.05-3.92,1.75-5.8,2.94l3.99,6.71c3.85-2.59,7.34-4.06,10.35-4.06,3.43,0,4.2,1.33,4.2,5.32v1.47c-.77-.07-1.4-.07-2.1-.07-11.4,0-17.2,3.92-17.2,12.31,0,7.13,4.34,11.19,12.31,11.19,2.94,0,5.45-.7,7.2-1.96.7-.49,1.47-1.19,2.17-1.89.91,1.82,2.87,3.43,5.04,4.34l4.97-5.73ZM228.9,135.12c-1.4,1.54-3.15,2.45-4.9,2.45-2.38,0-4.13-1.89-4.13-4.69,0-4.27,2.24-5.45,8.74-5.45h.42l-.14,7.69ZM269.64,133.37l-.56.49c-2.31,2.03-4.27,2.94-6.43,2.94-1.61,0-3.22-.77-4.2-2.03-1.19-1.54-1.82-4.34-1.82-9.02,0-8.39,1.89-12.03,6.08-12.03,1.75,0,3.78,1.05,5.66,2.8l4.55-6.15c-1.54-1.33-2.17-1.82-3.5-2.52-1.96-1.05-4.55-1.61-6.92-1.61-3.01,0-6.5,1.05-8.88,2.66-4.2,2.87-7.34,8.32-7.34,16.57,0,11.61,5.73,18.46,15.6,18.46,3.43,0,6.22-.77,8.74-2.24,1.26-.77,1.89-1.26,3.29-2.66l-4.27-5.66ZM10,94.48H0v48.6h25.67l1.75-8.11H10v-40.49ZM145.44,111.2l-3.92-5.94c-2.17,1.96-4.83,3.08-7.41,3.08-1.19,0-2.45-.28-4.41-.77-2.59-.63-4.41-.91-6.43-.91-9.16,0-15.11,4.76-15.11,12.1,0,5.32,2.52,8.6,7.69,9.93-5.87,1.54-6.57,3.71-6.57,6.01,0,2.45,1.05,4.06,2.73,4.69,1.68.7,4.41,1.05,8.6,1.12l3.99.07c3.71.07,6.57,1.05,6.57,4.27,0,1.47-.91,2.8-2.31,3.64-1.47.91-3.5,1.19-5.87,1.19-4.34,0-6.71-1.54-6.71-4.41,0-.98.07-1.47.42-2.31h-8.67c-.35.7-.84,1.68-.84,3.64,0,2.45.98,4.55,2.94,6.36,3.22,3.01,8.46,3.85,13.57,3.85,5.59,0,10.98-1.26,14.13-4.62,1.96-2.1,2.87-4.41,2.87-7.41,0-3.22-.98-5.66-3.08-7.62-2.52-2.31-5.38-3.15-10.84-3.22l-5.04-.07c-.98,0-1.54-.35-1.54-.84,0-.98,1.33-1.82,3.71-2.94.7.07.98.07,1.4.07,7.62,0,13.22-4.48,13.22-10.63,0-2.38-.7-4.2-2.1-5.87.56.07,1.54.21,2.45.21,2.59,0,4.55-.77,6.57-2.66ZM123.13,123.93c-3.29,0-5.52-1.47-5.52-5.11,0-3.36,2.03-5.32,5.59-5.32s5.66,1.96,5.66,5.32-2.03,5.11-5.73,5.11ZM200.59,133.51c-2.87,2.38-5.87,3.57-9.09,3.57-4.83,0-7.55-3.15-7.55-8.67v-.28h20.7v-2.17c0-7.48-1.47-12.31-4.76-15.67-2.31-2.38-6.22-3.78-10.35-3.78-4.76,0-8.32,1.54-11.26,4.83-3.15,3.5-4.48,7.76-4.48,14.2,0,11.26,6.64,18.53,16.92,18.53,5.04,0,9.37-1.61,13.5-4.97l-3.64-5.59ZM184.08,121.13c0-4.97,2.03-7.76,5.59-7.76,1.89,0,3.22.7,4.13,2.1.84,1.33,1.12,2.73,1.12,5.39v.42h-10.84v-.14ZM309.2,111.41c-1.12-3.15-4.76-5.11-9.3-5.11-3.64,0-7.69,1.54-10.14,3.85,0-.42.14-1.89.14-3.01v-7.13c0-3.43-.21-6.78-.63-8.74l-9.58,2.24c.42,1.47.7,4.83.7,8.18v41.4h9.51v-25.67c2.1-1.89,5.11-3.29,7.41-3.29,2.66,0,3.64,1.33,3.64,4.9v24.06h9.16v-25.04c0-3.43-.21-4.62-.91-6.64ZM90.76,106.65c-2.1,0-4.55.56-6.43,1.54-1.54.84-2.73,1.68-4.13,2.66,0-1.47-.49-3.01-1.33-4.48l-8.32,2.38c.84,2.38,1.26,5.32,1.26,8.39v25.95h9.37v-25.32c2.17-1.96,4.62-3.22,6.5-3.22,2.45,0,3.15,1.19,3.15,5.25v23.29h9.23v-26.16c0-2.24-.21-3.78-.7-5.11-1.12-3.08-4.62-5.18-8.6-5.18ZM47.7,106.58c-9.65,0-16.09,7.48-16.09,18.74s6.36,18.53,16.09,18.53c5.52,0,9.09-1.89,11.82-4.97,3.08-3.5,4.48-7.69,4.48-13.85,0-5.8-1.26-9.72-4.13-13.08-3.08-3.64-7.06-5.38-12.17-5.38ZM47.98,137.07c-1.82,0-3.92-.98-4.76-2.94-.77-1.82-1.19-4.9-1.19-9.02,0-3.57.35-6.08.98-7.97.77-2.24,2.59-3.64,4.83-3.64,1.68,0,3.15.7,4.06,1.89,1.26,1.61,1.89,4.76,1.89,9.58,0,8.46-1.75,12.1-5.8,12.1ZM273.99,161.43h3.87v-2.24h-3.91v-3.17h4.68l.35-2.24h-7.79v13.66h7.96v-2.36h-5.17v-3.66ZM300.26,156.06h3.34v11.38h2.79v-11.38h3.26l.45-2.28h-9.85v2.28ZM292,159.36c.02.94.12,2.69.22,3.76-.28-.98-.81-2.42-1.49-3.87l-2.61-5.47h-3.05v13.66h2.65l-.08-5.84c-.02-1.14-.04-2.75-.14-3.87.26.85,1.08,2.77,1.85,4.48l2.34,5.23h2.87v-13.66h-2.61l.06,5.58ZM236.03,156.06h3.34v11.38h2.79v-11.38h3.26l.45-2.28h-9.85v2.28ZM260,153.78l-1.85,6.78c-.22.81-.37,1.51-.49,2.22-.12-.71-.22-1.18-.47-2.16l-1.79-6.84h-3.52l-1.28,13.66h2.73l.47-7.14c.06-.85.1-1.65.1-2.46.14.79.37,1.75.55,2.42l1.95,7.18h2.34l2.16-7.47c.24-.83.35-1.32.51-2.1,0,.73.04,1.41.1,2.28l.51,7.29h2.69l-1.22-13.66h-3.5ZM185.72,165.56c-1.18,0-2.08-.53-2.63-1.53-.41-.75-.57-1.79-.57-3.66,0-1.59.24-2.73.77-3.52.49-.73,1.4-1.18,2.32-1.18.77,0,1.49.26,2.18.77l1.24-1.87c-.75-.65-2.1-1.08-3.46-1.08-2.2,0-4.17,1.18-5.23,3.17-.63,1.18-.92,2.54-.92,4.25,0,2.01.55,3.66,1.65,4.9,1.12,1.28,2.58,1.89,4.46,1.89,1.55,0,2.71-.39,3.79-1.28l-1.26-1.73c-.81.65-1.53.88-2.34.88ZM201.27,161.57c1.69-.04,3.05-1.73,3.05-3.78,0-2.4-1.59-4.01-4.01-4.01h-5.09v13.66h2.69v-5.7c.18.02.29.06.43.12.49.22.9.88,2.26,3.34.53.96.75,1.34,1.28,2.24h3.24s-2.5-4.33-3.28-5.31c-.18-.24-.29-.35-.57-.57ZM198.83,159.68h-.92v-3.7h.98c.67,0,1.24.08,1.55.2.65.24.98.83.98,1.67,0,.57-.2,1.06-.53,1.38-.37.33-.88.45-2.06.45ZM227.46,167.45h2.87v-13.66h-2.87v13.66ZM217.82,162.53c0,.73,0,.92-.04,1.22-.12,1-.88,1.59-2.08,1.59-.9,0-1.55-.33-1.87-.94-.16-.29-.24-.79-.24-1.63v-8.99h-2.81v9.52c0,1.32.14,1.87.59,2.58.77,1.2,2.3,1.83,4.38,1.83,2.95,0,4.29-1.49,4.64-2.58.2-.59.22-.85.22-2.14v-9.2h-2.79v8.75ZM169.32,161.43h3.87v-2.24h-3.91v-3.17h4.68l.35-2.24h-7.79v13.66h7.96v-2.36h-5.17v-3.66ZM156.97,161.57c1.69-.04,3.05-1.73,3.05-3.78,0-2.4-1.59-4.01-4.01-4.01h-5.09v13.66h2.69v-5.7c.18.02.29.06.43.12.49.22.9.88,2.26,3.34.53.96.75,1.34,1.28,2.24h3.24s-2.5-4.33-3.28-5.31c-.18-.24-.29-.35-.57-.57ZM154.54,159.68h-.92v-3.7h.98c.67,0,1.24.08,1.55.2.65.24.98.83.98,1.67,0,.57-.2,1.06-.53,1.38-.37.33-.88.45-2.06.45ZM170.7,82.64c1.13,0,2.22-.53,2.91-1.46.85-1.14.96-2.68.27-3.93l-4.49-8.13,25.73,5.68c.26.06.52.09.78.09,1.13,0,2.22-.53,2.91-1.46.85-1.14.96-2.68.27-3.93l-4.49-8.13,25.73,5.68c.26.06.52.09.78.09,1.13,0,2.22-.53,2.91-1.46.85-1.14.96-2.68.27-3.93L191.21,1.87c-.6-1.08-1.7-1.78-2.93-1.87-1.23-.08-2.42.46-3.16,1.45l-13.58,18.18-5.53-10.01c-.6-1.08-1.7-1.78-2.93-1.87-1.24-.09-2.42.46-3.16,1.45l-13.58,18.18-5.53-10.01c-.6-1.08-1.7-1.78-2.93-1.87-1.24-.09-2.42.46-3.16,1.45l-33.71,45.12c-.74.99-.92,2.28-.5,3.44.43,1.16,1.42,2.02,2.62,2.28l66.77,14.73c.26.06.52.09.78.09ZM187.58,10.31l26.45,47.89-24.13-5.32-14.51-26.26,12.18-16.31ZM180.45,50.8l-19.85-4.38,10.02-13.41,9.83,17.79ZM162.38,18.07l4.39,7.95-12.18,16.3-4.39-7.95,12.18-16.3ZM155.25,58.56l-19.85-4.38,10.02-13.41,9.83,17.79ZM110.2,61.94l26.97-36.11,4.39,7.95-15.36,20.55c-.74.99-.92,2.28-.5,3.44.43,1.16,1.42,2.02,2.62,2.28l31.59,6.97,3.7,6.69-53.43-11.79ZM161.01,53.95l24.13,5.32,3.7,6.7-24.13-5.32-3.7-6.7Z"/>
  </g>
</svg>