<?xml version="1.0" encoding="utf-8"?>
<!-- Generator: Adobe Illustrator 28.3.0, SVG Export Plug-In . SVG Version: 6.00 Build 0)  -->
<svg version="1.1" id="Layer_2_00000063624451252958322020000001846689383511682208_"
	 xmlns="http://www.w3.org/2000/svg" xmlns:xlink="http://www.w3.org/1999/xlink" x="0px" y="0px" viewBox="0 0 310.1 167.7"
	 style="enable-background:new 0 0 310.1 167.7;" xml:space="preserve">
<style type="text/css">
	.st0{fill:#FFFFFF;}
</style>
<g id="Layer_1-2">
	<path class="st0" d="M171.5,107.2c-1.5-0.6-2.1-0.8-3.5-0.8c-3.5,0-6.4,2.4-8.4,5.1c-0.1-2-0.6-3.6-1.5-5.1l-8.4,2.2
		c0.8,2,1.3,5.7,1.3,10.5v23.9h9.4v-25.3c1.8-2,3.6-3,5.7-3c1.1,0,1.8,0.2,2.7,0.7L171.5,107.2L171.5,107.2z M241.6,139.2
		c-3.1-2.4-3.4-4.1-3.4-8l0.2-12c0.1-3.8-0.1-5-0.6-6.4c-1.4-4-5.5-6.2-11.5-6.2c-3.3,0-6.3,0.6-9.8,2.1c-2.5,1.1-3.9,1.8-5.8,2.9
		l4,6.7c3.9-2.6,7.3-4.1,10.4-4.1c3.4,0,4.2,1.3,4.2,5.3v1.5c-0.8-0.1-1.4-0.1-2.1-0.1c-11.4,0-17.2,3.9-17.2,12.3
		c0,7.1,4.3,11.2,12.3,11.2c2.9,0,5.4-0.7,7.2-2c0.7-0.5,1.5-1.2,2.2-1.9c0.9,1.8,2.9,3.4,5,4.3L241.6,139.2L241.6,139.2z
		 M228.9,135.1c-1.4,1.5-3.1,2.4-4.9,2.4c-2.4,0-4.1-1.9-4.1-4.7c0-4.3,2.2-5.4,8.7-5.4h0.4L228.9,135.1L228.9,135.1z M269.6,133.4
		l-0.6,0.5c-2.3,2-4.3,2.9-6.4,2.9c-1.6,0-3.2-0.8-4.2-2c-1.2-1.5-1.8-4.3-1.8-9c0-8.4,1.9-12,6.1-12c1.8,0,3.8,1.1,5.7,2.8l4.5-6.2
		c-1.5-1.3-2.2-1.8-3.5-2.5c-2-1.1-4.5-1.6-6.9-1.6c-3,0-6.5,1.1-8.9,2.7c-4.2,2.9-7.3,8.3-7.3,16.6c0,11.6,5.7,18.5,15.6,18.5
		c3.4,0,6.2-0.8,8.7-2.2c1.3-0.8,1.9-1.3,3.3-2.7L269.6,133.4L269.6,133.4z M10,94.5H0v48.6h25.7l1.8-8.1H10C10,135,10,94.5,10,94.5
		z M145.4,111.2l-3.9-5.9c-2.2,2-4.8,3.1-7.4,3.1c-1.2,0-2.4-0.3-4.4-0.8c-2.6-0.6-4.4-0.9-6.4-0.9c-9.2,0-15.1,4.8-15.1,12.1
		c0,5.3,2.5,8.6,7.7,9.9c-5.9,1.5-6.6,3.7-6.6,6c0,2.4,1.1,4.1,2.7,4.7c1.7,0.7,4.4,1.1,8.6,1.1l4,0.1c3.7,0.1,6.6,1.1,6.6,4.3
		c0,1.5-0.9,2.8-2.3,3.6c-1.5,0.9-3.5,1.2-5.9,1.2c-4.3,0-6.7-1.5-6.7-4.4c0-1,0.1-1.5,0.4-2.3H108c-0.3,0.7-0.8,1.7-0.8,3.6
		c0,2.4,1,4.6,2.9,6.4c3.2,3,8.5,3.9,13.6,3.9c5.6,0,11-1.3,14.1-4.6c2-2.1,2.9-4.4,2.9-7.4c0-3.2-1-5.7-3.1-7.6
		c-2.5-2.3-5.4-3.1-10.8-3.2l-5-0.1c-1,0-1.5-0.4-1.5-0.8c0-1,1.3-1.8,3.7-2.9c0.7,0.1,1,0.1,1.4,0.1c7.6,0,13.2-4.5,13.2-10.6
		c0-2.4-0.7-4.2-2.1-5.9c0.6,0.1,1.5,0.2,2.4,0.2C141.5,113.9,143.4,113.1,145.4,111.2L145.4,111.2z M123.1,123.9
		c-3.3,0-5.5-1.5-5.5-5.1c0-3.4,2-5.3,5.6-5.3s5.7,2,5.7,5.3S126.8,123.9,123.1,123.9z M200.6,133.5c-2.9,2.4-5.9,3.6-9.1,3.6
		c-4.8,0-7.6-3.1-7.6-8.7v-0.3h20.7V126c0-7.5-1.5-12.3-4.8-15.7c-2.3-2.4-6.2-3.8-10.4-3.8c-4.8,0-8.3,1.5-11.3,4.8
		c-3.1,3.5-4.5,7.8-4.5,14.2c0,11.3,6.6,18.5,16.9,18.5c5,0,9.4-1.6,13.5-5L200.6,133.5L200.6,133.5z M184.1,121.1
		c0-5,2-7.8,5.6-7.8c1.9,0,3.2,0.7,4.1,2.1c0.8,1.3,1.1,2.7,1.1,5.4v0.4h-10.8V121.1L184.1,121.1z M309.2,111.4
		c-1.1-3.2-4.8-5.1-9.3-5.1c-3.6,0-7.7,1.5-10.1,3.8c0-0.4,0.1-1.9,0.1-3V100c0-3.4-0.2-6.8-0.6-8.7l-9.6,2.2
		c0.4,1.5,0.7,4.8,0.7,8.2v41.4h9.5v-25.7c2.1-1.9,5.1-3.3,7.4-3.3c2.7,0,3.6,1.3,3.6,4.9v24.1h9.2v-25
		C310.1,114.6,309.9,113.4,309.2,111.4L309.2,111.4z M90.8,106.7c-2.1,0-4.6,0.6-6.4,1.5c-1.5,0.8-2.7,1.7-4.1,2.7
		c0-1.5-0.5-3-1.3-4.5l-8.3,2.4c0.8,2.4,1.3,5.3,1.3,8.4v25.9h9.4v-25.3c2.2-2,4.6-3.2,6.5-3.2c2.4,0,3.2,1.2,3.2,5.2v23.3h9.2
		v-26.2c0-2.2-0.2-3.8-0.7-5.1C98.2,108.7,94.7,106.6,90.8,106.7L90.8,106.7z M47.7,106.6c-9.6,0-16.1,7.5-16.1,18.7
		s6.4,18.5,16.1,18.5c5.5,0,9.1-1.9,11.8-5c3.1-3.5,4.5-7.7,4.5-13.8c0-5.8-1.3-9.7-4.1-13.1C56.8,108.3,52.8,106.6,47.7,106.6
		L47.7,106.6z M48,137.1c-1.8,0-3.9-1-4.8-2.9c-0.8-1.8-1.2-4.9-1.2-9c0-3.6,0.3-6.1,1-8c0.8-2.2,2.6-3.6,4.8-3.6
		c1.7,0,3.2,0.7,4.1,1.9c1.3,1.6,1.9,4.8,1.9,9.6C53.8,133.4,52,137.1,48,137.1L48,137.1z M274,161.4h3.9v-2.2h-3.9V156h4.7l0.4-2.2
		h-7.8v13.7h8v-2.4H274L274,161.4L274,161.4z M300.3,156.1h3.3v11.4h2.8v-11.4h3.3l0.5-2.3h-9.9L300.3,156.1L300.3,156.1z
		 M292,159.4c0,0.9,0.1,2.7,0.2,3.8c-0.3-1-0.8-2.4-1.5-3.9l-2.6-5.5h-3v13.7h2.6l-0.1-5.8c0-1.1,0-2.8-0.1-3.9
		c0.3,0.9,1.1,2.8,1.9,4.5l2.3,5.2h2.9v-13.7H292L292,159.4L292,159.4z M236,156.1h3.3v11.4h2.8v-11.4h3.3l0.4-2.3H236L236,156.1
		L236,156.1z M260,153.8l-1.9,6.8c-0.2,0.8-0.4,1.5-0.5,2.2c-0.1-0.7-0.2-1.2-0.5-2.2l-1.8-6.8h-3.5l-1.3,13.7h2.7l0.5-7.1
		c0.1-0.9,0.1-1.6,0.1-2.5c0.1,0.8,0.4,1.8,0.6,2.4l2,7.2h2.3l2.2-7.5c0.2-0.8,0.4-1.3,0.5-2.1c0,0.7,0,1.4,0.1,2.3l0.5,7.3h2.7
		l-1.2-13.7L260,153.8L260,153.8z M185.7,165.6c-1.2,0-2.1-0.5-2.6-1.5c-0.4-0.8-0.6-1.8-0.6-3.7c0-1.6,0.2-2.7,0.8-3.5
		c0.5-0.7,1.4-1.2,2.3-1.2c0.8,0,1.5,0.3,2.2,0.8l1.2-1.9c-0.8-0.6-2.1-1.1-3.5-1.1c-2.2,0-4.2,1.2-5.2,3.2
		c-0.6,1.2-0.9,2.5-0.9,4.2c0,2,0.6,3.7,1.6,4.9c1.1,1.3,2.6,1.9,4.5,1.9c1.6,0,2.7-0.4,3.8-1.3l-1.3-1.7
		C187.2,165.3,186.5,165.6,185.7,165.6L185.7,165.6z M201.3,161.6c1.7,0,3.1-1.7,3.1-3.8c0-2.4-1.6-4-4-4h-5.1v13.7h2.7v-5.7
		c0.2,0,0.3,0.1,0.4,0.1c0.5,0.2,0.9,0.9,2.3,3.3c0.5,1,0.8,1.3,1.3,2.2h3.2c0,0-2.5-4.3-3.3-5.3
		C201.7,161.9,201.6,161.8,201.3,161.6L201.3,161.6z M198.8,159.7h-0.9V156h1c0.7,0,1.2,0.1,1.6,0.2c0.6,0.2,1,0.8,1,1.7
		c0,0.6-0.2,1.1-0.5,1.4C200.5,159.6,200,159.7,198.8,159.7z M227.5,167.4h2.9v-13.7h-2.9V167.4z M217.8,162.5c0,0.7,0,0.9,0,1.2
		c-0.1,1-0.9,1.6-2.1,1.6c-0.9,0-1.6-0.3-1.9-0.9c-0.2-0.3-0.2-0.8-0.2-1.6v-9h-2.8v9.5c0,1.3,0.1,1.9,0.6,2.6
		c0.8,1.2,2.3,1.8,4.4,1.8c2.9,0,4.3-1.5,4.6-2.6c0.2-0.6,0.2-0.9,0.2-2.1v-9.2h-2.8L217.8,162.5L217.8,162.5z M169.3,161.4h3.9
		v-2.2h-3.9V156h4.7l0.4-2.2h-7.8v13.7h8v-2.4h-5.2L169.3,161.4L169.3,161.4z M157,161.6c1.7,0,3.1-1.7,3.1-3.8c0-2.4-1.6-4-4-4
		h-5.1v13.7h2.7v-5.7c0.2,0,0.3,0.1,0.4,0.1c0.5,0.2,0.9,0.9,2.3,3.3c0.5,1,0.8,1.3,1.3,2.2h3.2c0,0-2.5-4.3-3.3-5.3
		C157.4,161.9,157.3,161.8,157,161.6L157,161.6z M154.5,159.7h-0.9V156h1c0.7,0,1.2,0.1,1.6,0.2c0.6,0.2,1,0.8,1,1.7
		c0,0.6-0.2,1.1-0.5,1.4C156.2,159.6,155.7,159.7,154.5,159.7z M170.7,82.6c1.1,0,2.2-0.5,2.9-1.5c0.9-1.1,1-2.7,0.3-3.9l-4.5-8.1
		l25.7,5.7c0.3,0.1,0.5,0.1,0.8,0.1c1.1,0,2.2-0.5,2.9-1.5c0.9-1.1,1-2.7,0.3-3.9l-4.5-8.1l25.7,5.7c0.3,0.1,0.5,0.1,0.8,0.1
		c1.1,0,2.2-0.5,2.9-1.5c0.9-1.1,1-2.7,0.3-3.9L191.2,1.9c-0.6-1.1-1.7-1.8-2.9-1.9c-1.2-0.1-2.4,0.5-3.2,1.5l-13.6,18.2l-5.5-10
		c-0.6-1.1-1.7-1.8-2.9-1.9c-1.2-0.1-2.4,0.5-3.2,1.4l-13.6,18.2l-5.5-10c-0.6-1.1-1.7-1.8-2.9-1.9c-1.2-0.1-2.4,0.5-3.2,1.4
		L101,62.1c-0.7,1-0.9,2.3-0.5,3.4c0.4,1.2,1.4,2,2.6,2.3l66.8,14.7C170.2,82.6,170.4,82.6,170.7,82.6L170.7,82.6z M187.6,10.3
		L214,58.2l-24.1-5.3l-14.5-26.3L187.6,10.3L187.6,10.3z M180.4,50.8l-19.9-4.4l10-13.4L180.4,50.8z M162.4,18.1l4.4,8l-12.2,16.3
		l-4.4-8L162.4,18.1z M155.2,58.6l-19.9-4.4l10-13.4L155.2,58.6z M110.2,61.9l27-36.1l4.4,8l-15.4,20.5c-0.7,1-0.9,2.3-0.5,3.4
		c0.4,1.2,1.4,2,2.6,2.3l31.6,7l3.7,6.7L110.2,61.9L110.2,61.9z M161,54l24.1,5.3l3.7,6.7l-24.1-5.3L161,54z"/>
</g>
</svg>
